%TF.GenerationSoftware,KiCad,Pcbnew,8.0.3*%
%TF.CreationDate,2025-03-09T15:36:07+05:30*%
%TF.ProjectId,penmouse without charger,70656e6d-6f75-4736-9520-776974686f75,rev?*%
%TF.SameCoordinates,Original*%
%TF.FileFunction,Drillmap*%
%TF.FilePolarity,Positive*%
%FSLAX45Y45*%
G04 Gerber Fmt 4.5, Leading zero omitted, Abs format (unit mm)*
G04 Created by KiCad (PCBNEW 8.0.3) date 2025-03-09 15:36:07*
%MOMM*%
%LPD*%
G01*
G04 APERTURE LIST*
%ADD10C,0.050000*%
%ADD11C,0.200000*%
%ADD12C,0.100000*%
%ADD13C,0.130000*%
G04 APERTURE END LIST*
D10*
X10397000Y-6492000D02*
X11910000Y-6492000D01*
X11910000Y-14857000D01*
X10397000Y-14857000D01*
X10397000Y-6492000D01*
D11*
D12*
X10485000Y-8485000D02*
X10515000Y-8515000D01*
X10515000Y-8485000D02*
X10485000Y-8515000D01*
X10585000Y-6985000D02*
X10615000Y-7015000D01*
X10615000Y-6985000D02*
X10585000Y-7015000D01*
X10585000Y-9685000D02*
X10615000Y-9715000D01*
X10615000Y-9685000D02*
X10585000Y-9715000D01*
X10681671Y-9286110D02*
X10711671Y-9316110D01*
X10711671Y-9286110D02*
X10681671Y-9316110D01*
X10689000Y-7063000D02*
X10719000Y-7093000D01*
X10719000Y-7063000D02*
X10689000Y-7093000D01*
X10785000Y-7085000D02*
X10815000Y-7115000D01*
X10815000Y-7085000D02*
X10785000Y-7115000D01*
X10985000Y-8685000D02*
X11015000Y-8715000D01*
X11015000Y-8685000D02*
X10985000Y-8715000D01*
X11071000Y-7686000D02*
X11101000Y-7716000D01*
X11101000Y-7686000D02*
X11071000Y-7716000D01*
X11185000Y-7085000D02*
X11215000Y-7115000D01*
X11215000Y-7085000D02*
X11185000Y-7115000D01*
X11201000Y-6821000D02*
X11231000Y-6851000D01*
X11231000Y-6821000D02*
X11201000Y-6851000D01*
X11285000Y-6885000D02*
X11315000Y-6915000D01*
X11315000Y-6885000D02*
X11285000Y-6915000D01*
X11285000Y-7485000D02*
X11315000Y-7515000D01*
X11315000Y-7485000D02*
X11285000Y-7515000D01*
X11285000Y-10085000D02*
X11315000Y-10115000D01*
X11315000Y-10085000D02*
X11285000Y-10115000D01*
X11285000Y-14185000D02*
X11315000Y-14215000D01*
X11315000Y-14185000D02*
X11285000Y-14215000D01*
X11385000Y-14585000D02*
X11415000Y-14615000D01*
X11415000Y-14585000D02*
X11385000Y-14615000D01*
X11685000Y-10085000D02*
X11715000Y-10115000D01*
X11715000Y-10085000D02*
X11685000Y-10115000D01*
X10860000Y-8498000D02*
G75*
G02*
X10780000Y-8498000I-40000J0D01*
G01*
X10780000Y-8498000D02*
G75*
G02*
X10860000Y-8498000I40000J0D01*
G01*
X10860000Y-8752000D02*
G75*
G02*
X10780000Y-8752000I-40000J0D01*
G01*
X10780000Y-8752000D02*
G75*
G02*
X10860000Y-8752000I40000J0D01*
G01*
X10860000Y-9006000D02*
G75*
G02*
X10780000Y-9006000I-40000J0D01*
G01*
X10780000Y-9006000D02*
G75*
G02*
X10860000Y-9006000I40000J0D01*
G01*
X10860000Y-9260000D02*
G75*
G02*
X10780000Y-9260000I-40000J0D01*
G01*
X10780000Y-9260000D02*
G75*
G02*
X10860000Y-9260000I40000J0D01*
G01*
X10860000Y-9514000D02*
G75*
G02*
X10780000Y-9514000I-40000J0D01*
G01*
X10780000Y-9514000D02*
G75*
G02*
X10860000Y-9514000I40000J0D01*
G01*
X10860000Y-9768000D02*
G75*
G02*
X10780000Y-9768000I-40000J0D01*
G01*
X10780000Y-9768000D02*
G75*
G02*
X10860000Y-9768000I40000J0D01*
G01*
X10860000Y-10022000D02*
G75*
G02*
X10780000Y-10022000I-40000J0D01*
G01*
X10780000Y-10022000D02*
G75*
G02*
X10860000Y-10022000I40000J0D01*
G01*
X10860000Y-10276000D02*
G75*
G02*
X10780000Y-10276000I-40000J0D01*
G01*
X10780000Y-10276000D02*
G75*
G02*
X10860000Y-10276000I40000J0D01*
G01*
X10860000Y-10530000D02*
G75*
G02*
X10780000Y-10530000I-40000J0D01*
G01*
X10780000Y-10530000D02*
G75*
G02*
X10860000Y-10530000I40000J0D01*
G01*
X10860000Y-10784000D02*
G75*
G02*
X10780000Y-10784000I-40000J0D01*
G01*
X10780000Y-10784000D02*
G75*
G02*
X10860000Y-10784000I40000J0D01*
G01*
X10860000Y-11038000D02*
G75*
G02*
X10780000Y-11038000I-40000J0D01*
G01*
X10780000Y-11038000D02*
G75*
G02*
X10860000Y-11038000I40000J0D01*
G01*
X10860000Y-11292000D02*
G75*
G02*
X10780000Y-11292000I-40000J0D01*
G01*
X10780000Y-11292000D02*
G75*
G02*
X10860000Y-11292000I40000J0D01*
G01*
X10860000Y-11546000D02*
G75*
G02*
X10780000Y-11546000I-40000J0D01*
G01*
X10780000Y-11546000D02*
G75*
G02*
X10860000Y-11546000I40000J0D01*
G01*
X10860000Y-11800000D02*
G75*
G02*
X10780000Y-11800000I-40000J0D01*
G01*
X10780000Y-11800000D02*
G75*
G02*
X10860000Y-11800000I40000J0D01*
G01*
X10950000Y-12200000D02*
G75*
G02*
X10870000Y-12200000I-40000J0D01*
G01*
X10870000Y-12200000D02*
G75*
G02*
X10950000Y-12200000I40000J0D01*
G01*
X11330000Y-12200000D02*
G75*
G02*
X11250000Y-12200000I-40000J0D01*
G01*
X11250000Y-12200000D02*
G75*
G02*
X11330000Y-12200000I40000J0D01*
G01*
X11622000Y-8498000D02*
G75*
G02*
X11542000Y-8498000I-40000J0D01*
G01*
X11542000Y-8498000D02*
G75*
G02*
X11622000Y-8498000I40000J0D01*
G01*
X11622000Y-8752000D02*
G75*
G02*
X11542000Y-8752000I-40000J0D01*
G01*
X11542000Y-8752000D02*
G75*
G02*
X11622000Y-8752000I40000J0D01*
G01*
X11622000Y-9006000D02*
G75*
G02*
X11542000Y-9006000I-40000J0D01*
G01*
X11542000Y-9006000D02*
G75*
G02*
X11622000Y-9006000I40000J0D01*
G01*
X11622000Y-9260000D02*
G75*
G02*
X11542000Y-9260000I-40000J0D01*
G01*
X11542000Y-9260000D02*
G75*
G02*
X11622000Y-9260000I40000J0D01*
G01*
X11622000Y-9514000D02*
G75*
G02*
X11542000Y-9514000I-40000J0D01*
G01*
X11542000Y-9514000D02*
G75*
G02*
X11622000Y-9514000I40000J0D01*
G01*
X11622000Y-9768000D02*
G75*
G02*
X11542000Y-9768000I-40000J0D01*
G01*
X11542000Y-9768000D02*
G75*
G02*
X11622000Y-9768000I40000J0D01*
G01*
X11622000Y-10022000D02*
G75*
G02*
X11542000Y-10022000I-40000J0D01*
G01*
X11542000Y-10022000D02*
G75*
G02*
X11622000Y-10022000I40000J0D01*
G01*
X11622000Y-10276000D02*
G75*
G02*
X11542000Y-10276000I-40000J0D01*
G01*
X11542000Y-10276000D02*
G75*
G02*
X11622000Y-10276000I40000J0D01*
G01*
X11622000Y-10530000D02*
G75*
G02*
X11542000Y-10530000I-40000J0D01*
G01*
X11542000Y-10530000D02*
G75*
G02*
X11622000Y-10530000I40000J0D01*
G01*
X11622000Y-10784000D02*
G75*
G02*
X11542000Y-10784000I-40000J0D01*
G01*
X11542000Y-10784000D02*
G75*
G02*
X11622000Y-10784000I40000J0D01*
G01*
X11622000Y-11038000D02*
G75*
G02*
X11542000Y-11038000I-40000J0D01*
G01*
X11542000Y-11038000D02*
G75*
G02*
X11622000Y-11038000I40000J0D01*
G01*
X11622000Y-11292000D02*
G75*
G02*
X11542000Y-11292000I-40000J0D01*
G01*
X11542000Y-11292000D02*
G75*
G02*
X11622000Y-11292000I40000J0D01*
G01*
X11622000Y-11546000D02*
G75*
G02*
X11542000Y-11546000I-40000J0D01*
G01*
X11542000Y-11546000D02*
G75*
G02*
X11622000Y-11546000I40000J0D01*
G01*
X11622000Y-11800000D02*
G75*
G02*
X11542000Y-11800000I-40000J0D01*
G01*
X11542000Y-11800000D02*
G75*
G02*
X11622000Y-11800000I40000J0D01*
G01*
X11470000Y-13677500D02*
X11470000Y-13772500D01*
X11422500Y-13725000D02*
X11517500Y-13725000D01*
X11470000Y-13927500D02*
X11470000Y-14022500D01*
X11422500Y-13975000D02*
X11517500Y-13975000D01*
X11470000Y-14177500D02*
X11470000Y-14272500D01*
X11422500Y-14225000D02*
X11517500Y-14225000D01*
X11470000Y-14427500D02*
X11470000Y-14522500D01*
X11422500Y-14475000D02*
X11517500Y-14475000D01*
X11500000Y-7202500D02*
X11500000Y-7297500D01*
X11452500Y-7250000D02*
X11547500Y-7250000D01*
X11500000Y-7452500D02*
X11500000Y-7547500D01*
X11452500Y-7500000D02*
X11547500Y-7500000D01*
X11500000Y-7702500D02*
X11500000Y-7797500D01*
X11452500Y-7750000D02*
X11547500Y-7750000D01*
X11500000Y-7952500D02*
X11500000Y-8047500D01*
X11452500Y-8000000D02*
X11547500Y-8000000D01*
X10983356Y-7509356D02*
X10983356Y-7438644D01*
X10912644Y-7438644D01*
X10912644Y-7509356D01*
X10983356Y-7509356D01*
X10983356Y-7759356D02*
X10983356Y-7688644D01*
X10912644Y-7688644D01*
X10912644Y-7759356D01*
X10983356Y-7759356D01*
X10983356Y-8009356D02*
X10983356Y-7938644D01*
X10912644Y-7938644D01*
X10912644Y-8009356D01*
X10983356Y-8009356D01*
D13*
X10900000Y-12915000D02*
X10965000Y-12850000D01*
X10900000Y-12785000D01*
X10835000Y-12850000D01*
X10900000Y-12915000D01*
X10900000Y-13565000D02*
X10965000Y-13500000D01*
X10900000Y-13435000D01*
X10835000Y-13500000D01*
X10900000Y-13565000D01*
X10900000Y-13915000D02*
X10965000Y-13850000D01*
X10900000Y-13785000D01*
X10835000Y-13850000D01*
X10900000Y-13915000D01*
X10900000Y-14565000D02*
X10965000Y-14500000D01*
X10900000Y-14435000D01*
X10835000Y-14500000D01*
X10900000Y-14565000D01*
X11500000Y-12640000D02*
X11565000Y-12575000D01*
X11500000Y-12510000D01*
X11435000Y-12575000D01*
X11500000Y-12640000D01*
X11500000Y-13290000D02*
X11565000Y-13225000D01*
X11500000Y-13160000D01*
X11435000Y-13225000D01*
X11500000Y-13290000D01*
D11*
X10655277Y-15170984D02*
X10655277Y-14970984D01*
X10655277Y-14970984D02*
X10702896Y-14970984D01*
X10702896Y-14970984D02*
X10731467Y-14980508D01*
X10731467Y-14980508D02*
X10750515Y-14999555D01*
X10750515Y-14999555D02*
X10760039Y-15018603D01*
X10760039Y-15018603D02*
X10769563Y-15056698D01*
X10769563Y-15056698D02*
X10769563Y-15085269D01*
X10769563Y-15085269D02*
X10760039Y-15123365D01*
X10760039Y-15123365D02*
X10750515Y-15142412D01*
X10750515Y-15142412D02*
X10731467Y-15161460D01*
X10731467Y-15161460D02*
X10702896Y-15170984D01*
X10702896Y-15170984D02*
X10655277Y-15170984D01*
X10855277Y-15170984D02*
X10855277Y-15037650D01*
X10855277Y-15075746D02*
X10864801Y-15056698D01*
X10864801Y-15056698D02*
X10874324Y-15047174D01*
X10874324Y-15047174D02*
X10893372Y-15037650D01*
X10893372Y-15037650D02*
X10912420Y-15037650D01*
X10979086Y-15170984D02*
X10979086Y-15037650D01*
X10979086Y-14970984D02*
X10969563Y-14980508D01*
X10969563Y-14980508D02*
X10979086Y-14990031D01*
X10979086Y-14990031D02*
X10988610Y-14980508D01*
X10988610Y-14980508D02*
X10979086Y-14970984D01*
X10979086Y-14970984D02*
X10979086Y-14990031D01*
X11102896Y-15170984D02*
X11083848Y-15161460D01*
X11083848Y-15161460D02*
X11074324Y-15142412D01*
X11074324Y-15142412D02*
X11074324Y-14970984D01*
X11207658Y-15170984D02*
X11188610Y-15161460D01*
X11188610Y-15161460D02*
X11179086Y-15142412D01*
X11179086Y-15142412D02*
X11179086Y-14970984D01*
X11436229Y-15170984D02*
X11436229Y-14970984D01*
X11436229Y-14970984D02*
X11502896Y-15113841D01*
X11502896Y-15113841D02*
X11569562Y-14970984D01*
X11569562Y-14970984D02*
X11569562Y-15170984D01*
X11750515Y-15170984D02*
X11750515Y-15066222D01*
X11750515Y-15066222D02*
X11740991Y-15047174D01*
X11740991Y-15047174D02*
X11721943Y-15037650D01*
X11721943Y-15037650D02*
X11683848Y-15037650D01*
X11683848Y-15037650D02*
X11664801Y-15047174D01*
X11750515Y-15161460D02*
X11731467Y-15170984D01*
X11731467Y-15170984D02*
X11683848Y-15170984D01*
X11683848Y-15170984D02*
X11664801Y-15161460D01*
X11664801Y-15161460D02*
X11655277Y-15142412D01*
X11655277Y-15142412D02*
X11655277Y-15123365D01*
X11655277Y-15123365D02*
X11664801Y-15104317D01*
X11664801Y-15104317D02*
X11683848Y-15094793D01*
X11683848Y-15094793D02*
X11731467Y-15094793D01*
X11731467Y-15094793D02*
X11750515Y-15085269D01*
X11845753Y-15037650D02*
X11845753Y-15237650D01*
X11845753Y-15047174D02*
X11864801Y-15037650D01*
X11864801Y-15037650D02*
X11902896Y-15037650D01*
X11902896Y-15037650D02*
X11921943Y-15047174D01*
X11921943Y-15047174D02*
X11931467Y-15056698D01*
X11931467Y-15056698D02*
X11940991Y-15075746D01*
X11940991Y-15075746D02*
X11940991Y-15132888D01*
X11940991Y-15132888D02*
X11931467Y-15151936D01*
X11931467Y-15151936D02*
X11921943Y-15161460D01*
X11921943Y-15161460D02*
X11902896Y-15170984D01*
X11902896Y-15170984D02*
X11864801Y-15170984D01*
X11864801Y-15170984D02*
X11845753Y-15161460D01*
X12026705Y-15151936D02*
X12036229Y-15161460D01*
X12036229Y-15161460D02*
X12026705Y-15170984D01*
X12026705Y-15170984D02*
X12017182Y-15161460D01*
X12017182Y-15161460D02*
X12026705Y-15151936D01*
X12026705Y-15151936D02*
X12026705Y-15170984D01*
X12026705Y-15047174D02*
X12036229Y-15056698D01*
X12036229Y-15056698D02*
X12026705Y-15066222D01*
X12026705Y-15066222D02*
X12017182Y-15056698D01*
X12017182Y-15056698D02*
X12026705Y-15047174D01*
X12026705Y-15047174D02*
X12026705Y-15066222D01*
D12*
X10364500Y-15484500D02*
X10394500Y-15514500D01*
X10394500Y-15484500D02*
X10364500Y-15514500D01*
D11*
X10693372Y-15390984D02*
X10712420Y-15390984D01*
X10712420Y-15390984D02*
X10731467Y-15400508D01*
X10731467Y-15400508D02*
X10740991Y-15410031D01*
X10740991Y-15410031D02*
X10750515Y-15429079D01*
X10750515Y-15429079D02*
X10760039Y-15467174D01*
X10760039Y-15467174D02*
X10760039Y-15514793D01*
X10760039Y-15514793D02*
X10750515Y-15552888D01*
X10750515Y-15552888D02*
X10740991Y-15571936D01*
X10740991Y-15571936D02*
X10731467Y-15581460D01*
X10731467Y-15581460D02*
X10712420Y-15590984D01*
X10712420Y-15590984D02*
X10693372Y-15590984D01*
X10693372Y-15590984D02*
X10674324Y-15581460D01*
X10674324Y-15581460D02*
X10664801Y-15571936D01*
X10664801Y-15571936D02*
X10655277Y-15552888D01*
X10655277Y-15552888D02*
X10645753Y-15514793D01*
X10645753Y-15514793D02*
X10645753Y-15467174D01*
X10645753Y-15467174D02*
X10655277Y-15429079D01*
X10655277Y-15429079D02*
X10664801Y-15410031D01*
X10664801Y-15410031D02*
X10674324Y-15400508D01*
X10674324Y-15400508D02*
X10693372Y-15390984D01*
X10845753Y-15571936D02*
X10855277Y-15581460D01*
X10855277Y-15581460D02*
X10845753Y-15590984D01*
X10845753Y-15590984D02*
X10836229Y-15581460D01*
X10836229Y-15581460D02*
X10845753Y-15571936D01*
X10845753Y-15571936D02*
X10845753Y-15590984D01*
X10921944Y-15390984D02*
X11045753Y-15390984D01*
X11045753Y-15390984D02*
X10979086Y-15467174D01*
X10979086Y-15467174D02*
X11007658Y-15467174D01*
X11007658Y-15467174D02*
X11026705Y-15476698D01*
X11026705Y-15476698D02*
X11036229Y-15486222D01*
X11036229Y-15486222D02*
X11045753Y-15505269D01*
X11045753Y-15505269D02*
X11045753Y-15552888D01*
X11045753Y-15552888D02*
X11036229Y-15571936D01*
X11036229Y-15571936D02*
X11026705Y-15581460D01*
X11026705Y-15581460D02*
X11007658Y-15590984D01*
X11007658Y-15590984D02*
X10950515Y-15590984D01*
X10950515Y-15590984D02*
X10931467Y-15581460D01*
X10931467Y-15581460D02*
X10921944Y-15571936D01*
X11169563Y-15390984D02*
X11188610Y-15390984D01*
X11188610Y-15390984D02*
X11207658Y-15400508D01*
X11207658Y-15400508D02*
X11217182Y-15410031D01*
X11217182Y-15410031D02*
X11226705Y-15429079D01*
X11226705Y-15429079D02*
X11236229Y-15467174D01*
X11236229Y-15467174D02*
X11236229Y-15514793D01*
X11236229Y-15514793D02*
X11226705Y-15552888D01*
X11226705Y-15552888D02*
X11217182Y-15571936D01*
X11217182Y-15571936D02*
X11207658Y-15581460D01*
X11207658Y-15581460D02*
X11188610Y-15590984D01*
X11188610Y-15590984D02*
X11169563Y-15590984D01*
X11169563Y-15590984D02*
X11150515Y-15581460D01*
X11150515Y-15581460D02*
X11140991Y-15571936D01*
X11140991Y-15571936D02*
X11131467Y-15552888D01*
X11131467Y-15552888D02*
X11121944Y-15514793D01*
X11121944Y-15514793D02*
X11121944Y-15467174D01*
X11121944Y-15467174D02*
X11131467Y-15429079D01*
X11131467Y-15429079D02*
X11140991Y-15410031D01*
X11140991Y-15410031D02*
X11150515Y-15400508D01*
X11150515Y-15400508D02*
X11169563Y-15390984D01*
X11360039Y-15390984D02*
X11379086Y-15390984D01*
X11379086Y-15390984D02*
X11398134Y-15400508D01*
X11398134Y-15400508D02*
X11407658Y-15410031D01*
X11407658Y-15410031D02*
X11417182Y-15429079D01*
X11417182Y-15429079D02*
X11426705Y-15467174D01*
X11426705Y-15467174D02*
X11426705Y-15514793D01*
X11426705Y-15514793D02*
X11417182Y-15552888D01*
X11417182Y-15552888D02*
X11407658Y-15571936D01*
X11407658Y-15571936D02*
X11398134Y-15581460D01*
X11398134Y-15581460D02*
X11379086Y-15590984D01*
X11379086Y-15590984D02*
X11360039Y-15590984D01*
X11360039Y-15590984D02*
X11340991Y-15581460D01*
X11340991Y-15581460D02*
X11331467Y-15571936D01*
X11331467Y-15571936D02*
X11321943Y-15552888D01*
X11321943Y-15552888D02*
X11312420Y-15514793D01*
X11312420Y-15514793D02*
X11312420Y-15467174D01*
X11312420Y-15467174D02*
X11321943Y-15429079D01*
X11321943Y-15429079D02*
X11331467Y-15410031D01*
X11331467Y-15410031D02*
X11340991Y-15400508D01*
X11340991Y-15400508D02*
X11360039Y-15390984D01*
X11512420Y-15590984D02*
X11512420Y-15457650D01*
X11512420Y-15476698D02*
X11521943Y-15467174D01*
X11521943Y-15467174D02*
X11540991Y-15457650D01*
X11540991Y-15457650D02*
X11569563Y-15457650D01*
X11569563Y-15457650D02*
X11588610Y-15467174D01*
X11588610Y-15467174D02*
X11598134Y-15486222D01*
X11598134Y-15486222D02*
X11598134Y-15590984D01*
X11598134Y-15486222D02*
X11607658Y-15467174D01*
X11607658Y-15467174D02*
X11626705Y-15457650D01*
X11626705Y-15457650D02*
X11655277Y-15457650D01*
X11655277Y-15457650D02*
X11674324Y-15467174D01*
X11674324Y-15467174D02*
X11683848Y-15486222D01*
X11683848Y-15486222D02*
X11683848Y-15590984D01*
X11779086Y-15590984D02*
X11779086Y-15457650D01*
X11779086Y-15476698D02*
X11788610Y-15467174D01*
X11788610Y-15467174D02*
X11807658Y-15457650D01*
X11807658Y-15457650D02*
X11836229Y-15457650D01*
X11836229Y-15457650D02*
X11855277Y-15467174D01*
X11855277Y-15467174D02*
X11864801Y-15486222D01*
X11864801Y-15486222D02*
X11864801Y-15590984D01*
X11864801Y-15486222D02*
X11874324Y-15467174D01*
X11874324Y-15467174D02*
X11893372Y-15457650D01*
X11893372Y-15457650D02*
X11921943Y-15457650D01*
X11921943Y-15457650D02*
X11940991Y-15467174D01*
X11940991Y-15467174D02*
X11950515Y-15486222D01*
X11950515Y-15486222D02*
X11950515Y-15590984D01*
X12340991Y-15381460D02*
X12169563Y-15638603D01*
X12598134Y-15390984D02*
X12617182Y-15390984D01*
X12617182Y-15390984D02*
X12636229Y-15400508D01*
X12636229Y-15400508D02*
X12645753Y-15410031D01*
X12645753Y-15410031D02*
X12655277Y-15429079D01*
X12655277Y-15429079D02*
X12664801Y-15467174D01*
X12664801Y-15467174D02*
X12664801Y-15514793D01*
X12664801Y-15514793D02*
X12655277Y-15552888D01*
X12655277Y-15552888D02*
X12645753Y-15571936D01*
X12645753Y-15571936D02*
X12636229Y-15581460D01*
X12636229Y-15581460D02*
X12617182Y-15590984D01*
X12617182Y-15590984D02*
X12598134Y-15590984D01*
X12598134Y-15590984D02*
X12579086Y-15581460D01*
X12579086Y-15581460D02*
X12569563Y-15571936D01*
X12569563Y-15571936D02*
X12560039Y-15552888D01*
X12560039Y-15552888D02*
X12550515Y-15514793D01*
X12550515Y-15514793D02*
X12550515Y-15467174D01*
X12550515Y-15467174D02*
X12560039Y-15429079D01*
X12560039Y-15429079D02*
X12569563Y-15410031D01*
X12569563Y-15410031D02*
X12579086Y-15400508D01*
X12579086Y-15400508D02*
X12598134Y-15390984D01*
X12750515Y-15571936D02*
X12760039Y-15581460D01*
X12760039Y-15581460D02*
X12750515Y-15590984D01*
X12750515Y-15590984D02*
X12740991Y-15581460D01*
X12740991Y-15581460D02*
X12750515Y-15571936D01*
X12750515Y-15571936D02*
X12750515Y-15590984D01*
X12883848Y-15390984D02*
X12902896Y-15390984D01*
X12902896Y-15390984D02*
X12921944Y-15400508D01*
X12921944Y-15400508D02*
X12931467Y-15410031D01*
X12931467Y-15410031D02*
X12940991Y-15429079D01*
X12940991Y-15429079D02*
X12950515Y-15467174D01*
X12950515Y-15467174D02*
X12950515Y-15514793D01*
X12950515Y-15514793D02*
X12940991Y-15552888D01*
X12940991Y-15552888D02*
X12931467Y-15571936D01*
X12931467Y-15571936D02*
X12921944Y-15581460D01*
X12921944Y-15581460D02*
X12902896Y-15590984D01*
X12902896Y-15590984D02*
X12883848Y-15590984D01*
X12883848Y-15590984D02*
X12864801Y-15581460D01*
X12864801Y-15581460D02*
X12855277Y-15571936D01*
X12855277Y-15571936D02*
X12845753Y-15552888D01*
X12845753Y-15552888D02*
X12836229Y-15514793D01*
X12836229Y-15514793D02*
X12836229Y-15467174D01*
X12836229Y-15467174D02*
X12845753Y-15429079D01*
X12845753Y-15429079D02*
X12855277Y-15410031D01*
X12855277Y-15410031D02*
X12864801Y-15400508D01*
X12864801Y-15400508D02*
X12883848Y-15390984D01*
X13140991Y-15590984D02*
X13026706Y-15590984D01*
X13083848Y-15590984D02*
X13083848Y-15390984D01*
X13083848Y-15390984D02*
X13064801Y-15419555D01*
X13064801Y-15419555D02*
X13045753Y-15438603D01*
X13045753Y-15438603D02*
X13026706Y-15448127D01*
X13331467Y-15590984D02*
X13217182Y-15590984D01*
X13274325Y-15590984D02*
X13274325Y-15390984D01*
X13274325Y-15390984D02*
X13255277Y-15419555D01*
X13255277Y-15419555D02*
X13236229Y-15438603D01*
X13236229Y-15438603D02*
X13217182Y-15448127D01*
X13445753Y-15476698D02*
X13426706Y-15467174D01*
X13426706Y-15467174D02*
X13417182Y-15457650D01*
X13417182Y-15457650D02*
X13407658Y-15438603D01*
X13407658Y-15438603D02*
X13407658Y-15429079D01*
X13407658Y-15429079D02*
X13417182Y-15410031D01*
X13417182Y-15410031D02*
X13426706Y-15400508D01*
X13426706Y-15400508D02*
X13445753Y-15390984D01*
X13445753Y-15390984D02*
X13483848Y-15390984D01*
X13483848Y-15390984D02*
X13502896Y-15400508D01*
X13502896Y-15400508D02*
X13512420Y-15410031D01*
X13512420Y-15410031D02*
X13521944Y-15429079D01*
X13521944Y-15429079D02*
X13521944Y-15438603D01*
X13521944Y-15438603D02*
X13512420Y-15457650D01*
X13512420Y-15457650D02*
X13502896Y-15467174D01*
X13502896Y-15467174D02*
X13483848Y-15476698D01*
X13483848Y-15476698D02*
X13445753Y-15476698D01*
X13445753Y-15476698D02*
X13426706Y-15486222D01*
X13426706Y-15486222D02*
X13417182Y-15495746D01*
X13417182Y-15495746D02*
X13407658Y-15514793D01*
X13407658Y-15514793D02*
X13407658Y-15552888D01*
X13407658Y-15552888D02*
X13417182Y-15571936D01*
X13417182Y-15571936D02*
X13426706Y-15581460D01*
X13426706Y-15581460D02*
X13445753Y-15590984D01*
X13445753Y-15590984D02*
X13483848Y-15590984D01*
X13483848Y-15590984D02*
X13502896Y-15581460D01*
X13502896Y-15581460D02*
X13512420Y-15571936D01*
X13512420Y-15571936D02*
X13521944Y-15552888D01*
X13521944Y-15552888D02*
X13521944Y-15514793D01*
X13521944Y-15514793D02*
X13512420Y-15495746D01*
X13512420Y-15495746D02*
X13502896Y-15486222D01*
X13502896Y-15486222D02*
X13483848Y-15476698D01*
X13598134Y-15390984D02*
X13598134Y-15429079D01*
X13674325Y-15390984D02*
X13674325Y-15429079D01*
X13969563Y-15667174D02*
X13960039Y-15657650D01*
X13960039Y-15657650D02*
X13940991Y-15629079D01*
X13940991Y-15629079D02*
X13931468Y-15610031D01*
X13931468Y-15610031D02*
X13921944Y-15581460D01*
X13921944Y-15581460D02*
X13912420Y-15533841D01*
X13912420Y-15533841D02*
X13912420Y-15495746D01*
X13912420Y-15495746D02*
X13921944Y-15448127D01*
X13921944Y-15448127D02*
X13931468Y-15419555D01*
X13931468Y-15419555D02*
X13940991Y-15400508D01*
X13940991Y-15400508D02*
X13960039Y-15371936D01*
X13960039Y-15371936D02*
X13969563Y-15362412D01*
X14150515Y-15590984D02*
X14036229Y-15590984D01*
X14093372Y-15590984D02*
X14093372Y-15390984D01*
X14093372Y-15390984D02*
X14074325Y-15419555D01*
X14074325Y-15419555D02*
X14055277Y-15438603D01*
X14055277Y-15438603D02*
X14036229Y-15448127D01*
X14321944Y-15390984D02*
X14283848Y-15390984D01*
X14283848Y-15390984D02*
X14264801Y-15400508D01*
X14264801Y-15400508D02*
X14255277Y-15410031D01*
X14255277Y-15410031D02*
X14236229Y-15438603D01*
X14236229Y-15438603D02*
X14226706Y-15476698D01*
X14226706Y-15476698D02*
X14226706Y-15552888D01*
X14226706Y-15552888D02*
X14236229Y-15571936D01*
X14236229Y-15571936D02*
X14245753Y-15581460D01*
X14245753Y-15581460D02*
X14264801Y-15590984D01*
X14264801Y-15590984D02*
X14302896Y-15590984D01*
X14302896Y-15590984D02*
X14321944Y-15581460D01*
X14321944Y-15581460D02*
X14331468Y-15571936D01*
X14331468Y-15571936D02*
X14340991Y-15552888D01*
X14340991Y-15552888D02*
X14340991Y-15505269D01*
X14340991Y-15505269D02*
X14331468Y-15486222D01*
X14331468Y-15486222D02*
X14321944Y-15476698D01*
X14321944Y-15476698D02*
X14302896Y-15467174D01*
X14302896Y-15467174D02*
X14264801Y-15467174D01*
X14264801Y-15467174D02*
X14245753Y-15476698D01*
X14245753Y-15476698D02*
X14236229Y-15486222D01*
X14236229Y-15486222D02*
X14226706Y-15505269D01*
X14579087Y-15590984D02*
X14579087Y-15390984D01*
X14664801Y-15590984D02*
X14664801Y-15486222D01*
X14664801Y-15486222D02*
X14655277Y-15467174D01*
X14655277Y-15467174D02*
X14636230Y-15457650D01*
X14636230Y-15457650D02*
X14607658Y-15457650D01*
X14607658Y-15457650D02*
X14588610Y-15467174D01*
X14588610Y-15467174D02*
X14579087Y-15476698D01*
X14788610Y-15590984D02*
X14769563Y-15581460D01*
X14769563Y-15581460D02*
X14760039Y-15571936D01*
X14760039Y-15571936D02*
X14750515Y-15552888D01*
X14750515Y-15552888D02*
X14750515Y-15495746D01*
X14750515Y-15495746D02*
X14760039Y-15476698D01*
X14760039Y-15476698D02*
X14769563Y-15467174D01*
X14769563Y-15467174D02*
X14788610Y-15457650D01*
X14788610Y-15457650D02*
X14817182Y-15457650D01*
X14817182Y-15457650D02*
X14836230Y-15467174D01*
X14836230Y-15467174D02*
X14845753Y-15476698D01*
X14845753Y-15476698D02*
X14855277Y-15495746D01*
X14855277Y-15495746D02*
X14855277Y-15552888D01*
X14855277Y-15552888D02*
X14845753Y-15571936D01*
X14845753Y-15571936D02*
X14836230Y-15581460D01*
X14836230Y-15581460D02*
X14817182Y-15590984D01*
X14817182Y-15590984D02*
X14788610Y-15590984D01*
X14969563Y-15590984D02*
X14950515Y-15581460D01*
X14950515Y-15581460D02*
X14940991Y-15562412D01*
X14940991Y-15562412D02*
X14940991Y-15390984D01*
X15121944Y-15581460D02*
X15102896Y-15590984D01*
X15102896Y-15590984D02*
X15064801Y-15590984D01*
X15064801Y-15590984D02*
X15045753Y-15581460D01*
X15045753Y-15581460D02*
X15036230Y-15562412D01*
X15036230Y-15562412D02*
X15036230Y-15486222D01*
X15036230Y-15486222D02*
X15045753Y-15467174D01*
X15045753Y-15467174D02*
X15064801Y-15457650D01*
X15064801Y-15457650D02*
X15102896Y-15457650D01*
X15102896Y-15457650D02*
X15121944Y-15467174D01*
X15121944Y-15467174D02*
X15131468Y-15486222D01*
X15131468Y-15486222D02*
X15131468Y-15505269D01*
X15131468Y-15505269D02*
X15036230Y-15524317D01*
X15207658Y-15581460D02*
X15226706Y-15590984D01*
X15226706Y-15590984D02*
X15264801Y-15590984D01*
X15264801Y-15590984D02*
X15283849Y-15581460D01*
X15283849Y-15581460D02*
X15293372Y-15562412D01*
X15293372Y-15562412D02*
X15293372Y-15552888D01*
X15293372Y-15552888D02*
X15283849Y-15533841D01*
X15283849Y-15533841D02*
X15264801Y-15524317D01*
X15264801Y-15524317D02*
X15236230Y-15524317D01*
X15236230Y-15524317D02*
X15217182Y-15514793D01*
X15217182Y-15514793D02*
X15207658Y-15495746D01*
X15207658Y-15495746D02*
X15207658Y-15486222D01*
X15207658Y-15486222D02*
X15217182Y-15467174D01*
X15217182Y-15467174D02*
X15236230Y-15457650D01*
X15236230Y-15457650D02*
X15264801Y-15457650D01*
X15264801Y-15457650D02*
X15283849Y-15467174D01*
X15360039Y-15667174D02*
X15369563Y-15657650D01*
X15369563Y-15657650D02*
X15388611Y-15629079D01*
X15388611Y-15629079D02*
X15398134Y-15610031D01*
X15398134Y-15610031D02*
X15407658Y-15581460D01*
X15407658Y-15581460D02*
X15417182Y-15533841D01*
X15417182Y-15533841D02*
X15417182Y-15495746D01*
X15417182Y-15495746D02*
X15407658Y-15448127D01*
X15407658Y-15448127D02*
X15398134Y-15419555D01*
X15398134Y-15419555D02*
X15388611Y-15400508D01*
X15388611Y-15400508D02*
X15369563Y-15371936D01*
X15369563Y-15371936D02*
X15360039Y-15362412D01*
D12*
X10394500Y-15763500D02*
G75*
G02*
X10314500Y-15763500I-40000J0D01*
G01*
X10314500Y-15763500D02*
G75*
G02*
X10394500Y-15763500I40000J0D01*
G01*
D11*
X10693372Y-15654984D02*
X10712420Y-15654984D01*
X10712420Y-15654984D02*
X10731467Y-15664508D01*
X10731467Y-15664508D02*
X10740991Y-15674031D01*
X10740991Y-15674031D02*
X10750515Y-15693079D01*
X10750515Y-15693079D02*
X10760039Y-15731174D01*
X10760039Y-15731174D02*
X10760039Y-15778793D01*
X10760039Y-15778793D02*
X10750515Y-15816888D01*
X10750515Y-15816888D02*
X10740991Y-15835936D01*
X10740991Y-15835936D02*
X10731467Y-15845460D01*
X10731467Y-15845460D02*
X10712420Y-15854984D01*
X10712420Y-15854984D02*
X10693372Y-15854984D01*
X10693372Y-15854984D02*
X10674324Y-15845460D01*
X10674324Y-15845460D02*
X10664801Y-15835936D01*
X10664801Y-15835936D02*
X10655277Y-15816888D01*
X10655277Y-15816888D02*
X10645753Y-15778793D01*
X10645753Y-15778793D02*
X10645753Y-15731174D01*
X10645753Y-15731174D02*
X10655277Y-15693079D01*
X10655277Y-15693079D02*
X10664801Y-15674031D01*
X10664801Y-15674031D02*
X10674324Y-15664508D01*
X10674324Y-15664508D02*
X10693372Y-15654984D01*
X10845753Y-15835936D02*
X10855277Y-15845460D01*
X10855277Y-15845460D02*
X10845753Y-15854984D01*
X10845753Y-15854984D02*
X10836229Y-15845460D01*
X10836229Y-15845460D02*
X10845753Y-15835936D01*
X10845753Y-15835936D02*
X10845753Y-15854984D01*
X10969563Y-15740698D02*
X10950515Y-15731174D01*
X10950515Y-15731174D02*
X10940991Y-15721650D01*
X10940991Y-15721650D02*
X10931467Y-15702603D01*
X10931467Y-15702603D02*
X10931467Y-15693079D01*
X10931467Y-15693079D02*
X10940991Y-15674031D01*
X10940991Y-15674031D02*
X10950515Y-15664508D01*
X10950515Y-15664508D02*
X10969563Y-15654984D01*
X10969563Y-15654984D02*
X11007658Y-15654984D01*
X11007658Y-15654984D02*
X11026705Y-15664508D01*
X11026705Y-15664508D02*
X11036229Y-15674031D01*
X11036229Y-15674031D02*
X11045753Y-15693079D01*
X11045753Y-15693079D02*
X11045753Y-15702603D01*
X11045753Y-15702603D02*
X11036229Y-15721650D01*
X11036229Y-15721650D02*
X11026705Y-15731174D01*
X11026705Y-15731174D02*
X11007658Y-15740698D01*
X11007658Y-15740698D02*
X10969563Y-15740698D01*
X10969563Y-15740698D02*
X10950515Y-15750222D01*
X10950515Y-15750222D02*
X10940991Y-15759746D01*
X10940991Y-15759746D02*
X10931467Y-15778793D01*
X10931467Y-15778793D02*
X10931467Y-15816888D01*
X10931467Y-15816888D02*
X10940991Y-15835936D01*
X10940991Y-15835936D02*
X10950515Y-15845460D01*
X10950515Y-15845460D02*
X10969563Y-15854984D01*
X10969563Y-15854984D02*
X11007658Y-15854984D01*
X11007658Y-15854984D02*
X11026705Y-15845460D01*
X11026705Y-15845460D02*
X11036229Y-15835936D01*
X11036229Y-15835936D02*
X11045753Y-15816888D01*
X11045753Y-15816888D02*
X11045753Y-15778793D01*
X11045753Y-15778793D02*
X11036229Y-15759746D01*
X11036229Y-15759746D02*
X11026705Y-15750222D01*
X11026705Y-15750222D02*
X11007658Y-15740698D01*
X11169563Y-15654984D02*
X11188610Y-15654984D01*
X11188610Y-15654984D02*
X11207658Y-15664508D01*
X11207658Y-15664508D02*
X11217182Y-15674031D01*
X11217182Y-15674031D02*
X11226705Y-15693079D01*
X11226705Y-15693079D02*
X11236229Y-15731174D01*
X11236229Y-15731174D02*
X11236229Y-15778793D01*
X11236229Y-15778793D02*
X11226705Y-15816888D01*
X11226705Y-15816888D02*
X11217182Y-15835936D01*
X11217182Y-15835936D02*
X11207658Y-15845460D01*
X11207658Y-15845460D02*
X11188610Y-15854984D01*
X11188610Y-15854984D02*
X11169563Y-15854984D01*
X11169563Y-15854984D02*
X11150515Y-15845460D01*
X11150515Y-15845460D02*
X11140991Y-15835936D01*
X11140991Y-15835936D02*
X11131467Y-15816888D01*
X11131467Y-15816888D02*
X11121944Y-15778793D01*
X11121944Y-15778793D02*
X11121944Y-15731174D01*
X11121944Y-15731174D02*
X11131467Y-15693079D01*
X11131467Y-15693079D02*
X11140991Y-15674031D01*
X11140991Y-15674031D02*
X11150515Y-15664508D01*
X11150515Y-15664508D02*
X11169563Y-15654984D01*
X11360039Y-15654984D02*
X11379086Y-15654984D01*
X11379086Y-15654984D02*
X11398134Y-15664508D01*
X11398134Y-15664508D02*
X11407658Y-15674031D01*
X11407658Y-15674031D02*
X11417182Y-15693079D01*
X11417182Y-15693079D02*
X11426705Y-15731174D01*
X11426705Y-15731174D02*
X11426705Y-15778793D01*
X11426705Y-15778793D02*
X11417182Y-15816888D01*
X11417182Y-15816888D02*
X11407658Y-15835936D01*
X11407658Y-15835936D02*
X11398134Y-15845460D01*
X11398134Y-15845460D02*
X11379086Y-15854984D01*
X11379086Y-15854984D02*
X11360039Y-15854984D01*
X11360039Y-15854984D02*
X11340991Y-15845460D01*
X11340991Y-15845460D02*
X11331467Y-15835936D01*
X11331467Y-15835936D02*
X11321943Y-15816888D01*
X11321943Y-15816888D02*
X11312420Y-15778793D01*
X11312420Y-15778793D02*
X11312420Y-15731174D01*
X11312420Y-15731174D02*
X11321943Y-15693079D01*
X11321943Y-15693079D02*
X11331467Y-15674031D01*
X11331467Y-15674031D02*
X11340991Y-15664508D01*
X11340991Y-15664508D02*
X11360039Y-15654984D01*
X11512420Y-15854984D02*
X11512420Y-15721650D01*
X11512420Y-15740698D02*
X11521943Y-15731174D01*
X11521943Y-15731174D02*
X11540991Y-15721650D01*
X11540991Y-15721650D02*
X11569563Y-15721650D01*
X11569563Y-15721650D02*
X11588610Y-15731174D01*
X11588610Y-15731174D02*
X11598134Y-15750222D01*
X11598134Y-15750222D02*
X11598134Y-15854984D01*
X11598134Y-15750222D02*
X11607658Y-15731174D01*
X11607658Y-15731174D02*
X11626705Y-15721650D01*
X11626705Y-15721650D02*
X11655277Y-15721650D01*
X11655277Y-15721650D02*
X11674324Y-15731174D01*
X11674324Y-15731174D02*
X11683848Y-15750222D01*
X11683848Y-15750222D02*
X11683848Y-15854984D01*
X11779086Y-15854984D02*
X11779086Y-15721650D01*
X11779086Y-15740698D02*
X11788610Y-15731174D01*
X11788610Y-15731174D02*
X11807658Y-15721650D01*
X11807658Y-15721650D02*
X11836229Y-15721650D01*
X11836229Y-15721650D02*
X11855277Y-15731174D01*
X11855277Y-15731174D02*
X11864801Y-15750222D01*
X11864801Y-15750222D02*
X11864801Y-15854984D01*
X11864801Y-15750222D02*
X11874324Y-15731174D01*
X11874324Y-15731174D02*
X11893372Y-15721650D01*
X11893372Y-15721650D02*
X11921943Y-15721650D01*
X11921943Y-15721650D02*
X11940991Y-15731174D01*
X11940991Y-15731174D02*
X11950515Y-15750222D01*
X11950515Y-15750222D02*
X11950515Y-15854984D01*
X12340991Y-15645460D02*
X12169563Y-15902603D01*
X12598134Y-15654984D02*
X12617182Y-15654984D01*
X12617182Y-15654984D02*
X12636229Y-15664508D01*
X12636229Y-15664508D02*
X12645753Y-15674031D01*
X12645753Y-15674031D02*
X12655277Y-15693079D01*
X12655277Y-15693079D02*
X12664801Y-15731174D01*
X12664801Y-15731174D02*
X12664801Y-15778793D01*
X12664801Y-15778793D02*
X12655277Y-15816888D01*
X12655277Y-15816888D02*
X12645753Y-15835936D01*
X12645753Y-15835936D02*
X12636229Y-15845460D01*
X12636229Y-15845460D02*
X12617182Y-15854984D01*
X12617182Y-15854984D02*
X12598134Y-15854984D01*
X12598134Y-15854984D02*
X12579086Y-15845460D01*
X12579086Y-15845460D02*
X12569563Y-15835936D01*
X12569563Y-15835936D02*
X12560039Y-15816888D01*
X12560039Y-15816888D02*
X12550515Y-15778793D01*
X12550515Y-15778793D02*
X12550515Y-15731174D01*
X12550515Y-15731174D02*
X12560039Y-15693079D01*
X12560039Y-15693079D02*
X12569563Y-15674031D01*
X12569563Y-15674031D02*
X12579086Y-15664508D01*
X12579086Y-15664508D02*
X12598134Y-15654984D01*
X12750515Y-15835936D02*
X12760039Y-15845460D01*
X12760039Y-15845460D02*
X12750515Y-15854984D01*
X12750515Y-15854984D02*
X12740991Y-15845460D01*
X12740991Y-15845460D02*
X12750515Y-15835936D01*
X12750515Y-15835936D02*
X12750515Y-15854984D01*
X12883848Y-15654984D02*
X12902896Y-15654984D01*
X12902896Y-15654984D02*
X12921944Y-15664508D01*
X12921944Y-15664508D02*
X12931467Y-15674031D01*
X12931467Y-15674031D02*
X12940991Y-15693079D01*
X12940991Y-15693079D02*
X12950515Y-15731174D01*
X12950515Y-15731174D02*
X12950515Y-15778793D01*
X12950515Y-15778793D02*
X12940991Y-15816888D01*
X12940991Y-15816888D02*
X12931467Y-15835936D01*
X12931467Y-15835936D02*
X12921944Y-15845460D01*
X12921944Y-15845460D02*
X12902896Y-15854984D01*
X12902896Y-15854984D02*
X12883848Y-15854984D01*
X12883848Y-15854984D02*
X12864801Y-15845460D01*
X12864801Y-15845460D02*
X12855277Y-15835936D01*
X12855277Y-15835936D02*
X12845753Y-15816888D01*
X12845753Y-15816888D02*
X12836229Y-15778793D01*
X12836229Y-15778793D02*
X12836229Y-15731174D01*
X12836229Y-15731174D02*
X12845753Y-15693079D01*
X12845753Y-15693079D02*
X12855277Y-15674031D01*
X12855277Y-15674031D02*
X12864801Y-15664508D01*
X12864801Y-15664508D02*
X12883848Y-15654984D01*
X13017182Y-15654984D02*
X13140991Y-15654984D01*
X13140991Y-15654984D02*
X13074325Y-15731174D01*
X13074325Y-15731174D02*
X13102896Y-15731174D01*
X13102896Y-15731174D02*
X13121944Y-15740698D01*
X13121944Y-15740698D02*
X13131467Y-15750222D01*
X13131467Y-15750222D02*
X13140991Y-15769269D01*
X13140991Y-15769269D02*
X13140991Y-15816888D01*
X13140991Y-15816888D02*
X13131467Y-15835936D01*
X13131467Y-15835936D02*
X13121944Y-15845460D01*
X13121944Y-15845460D02*
X13102896Y-15854984D01*
X13102896Y-15854984D02*
X13045753Y-15854984D01*
X13045753Y-15854984D02*
X13026706Y-15845460D01*
X13026706Y-15845460D02*
X13017182Y-15835936D01*
X13331467Y-15854984D02*
X13217182Y-15854984D01*
X13274325Y-15854984D02*
X13274325Y-15654984D01*
X13274325Y-15654984D02*
X13255277Y-15683555D01*
X13255277Y-15683555D02*
X13236229Y-15702603D01*
X13236229Y-15702603D02*
X13217182Y-15712127D01*
X13512420Y-15654984D02*
X13417182Y-15654984D01*
X13417182Y-15654984D02*
X13407658Y-15750222D01*
X13407658Y-15750222D02*
X13417182Y-15740698D01*
X13417182Y-15740698D02*
X13436229Y-15731174D01*
X13436229Y-15731174D02*
X13483848Y-15731174D01*
X13483848Y-15731174D02*
X13502896Y-15740698D01*
X13502896Y-15740698D02*
X13512420Y-15750222D01*
X13512420Y-15750222D02*
X13521944Y-15769269D01*
X13521944Y-15769269D02*
X13521944Y-15816888D01*
X13521944Y-15816888D02*
X13512420Y-15835936D01*
X13512420Y-15835936D02*
X13502896Y-15845460D01*
X13502896Y-15845460D02*
X13483848Y-15854984D01*
X13483848Y-15854984D02*
X13436229Y-15854984D01*
X13436229Y-15854984D02*
X13417182Y-15845460D01*
X13417182Y-15845460D02*
X13407658Y-15835936D01*
X13598134Y-15654984D02*
X13598134Y-15693079D01*
X13674325Y-15654984D02*
X13674325Y-15693079D01*
X13969563Y-15931174D02*
X13960039Y-15921650D01*
X13960039Y-15921650D02*
X13940991Y-15893079D01*
X13940991Y-15893079D02*
X13931468Y-15874031D01*
X13931468Y-15874031D02*
X13921944Y-15845460D01*
X13921944Y-15845460D02*
X13912420Y-15797841D01*
X13912420Y-15797841D02*
X13912420Y-15759746D01*
X13912420Y-15759746D02*
X13921944Y-15712127D01*
X13921944Y-15712127D02*
X13931468Y-15683555D01*
X13931468Y-15683555D02*
X13940991Y-15664508D01*
X13940991Y-15664508D02*
X13960039Y-15635936D01*
X13960039Y-15635936D02*
X13969563Y-15626412D01*
X14026706Y-15654984D02*
X14150515Y-15654984D01*
X14150515Y-15654984D02*
X14083848Y-15731174D01*
X14083848Y-15731174D02*
X14112420Y-15731174D01*
X14112420Y-15731174D02*
X14131468Y-15740698D01*
X14131468Y-15740698D02*
X14140991Y-15750222D01*
X14140991Y-15750222D02*
X14150515Y-15769269D01*
X14150515Y-15769269D02*
X14150515Y-15816888D01*
X14150515Y-15816888D02*
X14140991Y-15835936D01*
X14140991Y-15835936D02*
X14131468Y-15845460D01*
X14131468Y-15845460D02*
X14112420Y-15854984D01*
X14112420Y-15854984D02*
X14055277Y-15854984D01*
X14055277Y-15854984D02*
X14036229Y-15845460D01*
X14036229Y-15845460D02*
X14026706Y-15835936D01*
X14274325Y-15654984D02*
X14293372Y-15654984D01*
X14293372Y-15654984D02*
X14312420Y-15664508D01*
X14312420Y-15664508D02*
X14321944Y-15674031D01*
X14321944Y-15674031D02*
X14331468Y-15693079D01*
X14331468Y-15693079D02*
X14340991Y-15731174D01*
X14340991Y-15731174D02*
X14340991Y-15778793D01*
X14340991Y-15778793D02*
X14331468Y-15816888D01*
X14331468Y-15816888D02*
X14321944Y-15835936D01*
X14321944Y-15835936D02*
X14312420Y-15845460D01*
X14312420Y-15845460D02*
X14293372Y-15854984D01*
X14293372Y-15854984D02*
X14274325Y-15854984D01*
X14274325Y-15854984D02*
X14255277Y-15845460D01*
X14255277Y-15845460D02*
X14245753Y-15835936D01*
X14245753Y-15835936D02*
X14236229Y-15816888D01*
X14236229Y-15816888D02*
X14226706Y-15778793D01*
X14226706Y-15778793D02*
X14226706Y-15731174D01*
X14226706Y-15731174D02*
X14236229Y-15693079D01*
X14236229Y-15693079D02*
X14245753Y-15674031D01*
X14245753Y-15674031D02*
X14255277Y-15664508D01*
X14255277Y-15664508D02*
X14274325Y-15654984D01*
X14579087Y-15854984D02*
X14579087Y-15654984D01*
X14664801Y-15854984D02*
X14664801Y-15750222D01*
X14664801Y-15750222D02*
X14655277Y-15731174D01*
X14655277Y-15731174D02*
X14636230Y-15721650D01*
X14636230Y-15721650D02*
X14607658Y-15721650D01*
X14607658Y-15721650D02*
X14588610Y-15731174D01*
X14588610Y-15731174D02*
X14579087Y-15740698D01*
X14788610Y-15854984D02*
X14769563Y-15845460D01*
X14769563Y-15845460D02*
X14760039Y-15835936D01*
X14760039Y-15835936D02*
X14750515Y-15816888D01*
X14750515Y-15816888D02*
X14750515Y-15759746D01*
X14750515Y-15759746D02*
X14760039Y-15740698D01*
X14760039Y-15740698D02*
X14769563Y-15731174D01*
X14769563Y-15731174D02*
X14788610Y-15721650D01*
X14788610Y-15721650D02*
X14817182Y-15721650D01*
X14817182Y-15721650D02*
X14836230Y-15731174D01*
X14836230Y-15731174D02*
X14845753Y-15740698D01*
X14845753Y-15740698D02*
X14855277Y-15759746D01*
X14855277Y-15759746D02*
X14855277Y-15816888D01*
X14855277Y-15816888D02*
X14845753Y-15835936D01*
X14845753Y-15835936D02*
X14836230Y-15845460D01*
X14836230Y-15845460D02*
X14817182Y-15854984D01*
X14817182Y-15854984D02*
X14788610Y-15854984D01*
X14969563Y-15854984D02*
X14950515Y-15845460D01*
X14950515Y-15845460D02*
X14940991Y-15826412D01*
X14940991Y-15826412D02*
X14940991Y-15654984D01*
X15121944Y-15845460D02*
X15102896Y-15854984D01*
X15102896Y-15854984D02*
X15064801Y-15854984D01*
X15064801Y-15854984D02*
X15045753Y-15845460D01*
X15045753Y-15845460D02*
X15036230Y-15826412D01*
X15036230Y-15826412D02*
X15036230Y-15750222D01*
X15036230Y-15750222D02*
X15045753Y-15731174D01*
X15045753Y-15731174D02*
X15064801Y-15721650D01*
X15064801Y-15721650D02*
X15102896Y-15721650D01*
X15102896Y-15721650D02*
X15121944Y-15731174D01*
X15121944Y-15731174D02*
X15131468Y-15750222D01*
X15131468Y-15750222D02*
X15131468Y-15769269D01*
X15131468Y-15769269D02*
X15036230Y-15788317D01*
X15207658Y-15845460D02*
X15226706Y-15854984D01*
X15226706Y-15854984D02*
X15264801Y-15854984D01*
X15264801Y-15854984D02*
X15283849Y-15845460D01*
X15283849Y-15845460D02*
X15293372Y-15826412D01*
X15293372Y-15826412D02*
X15293372Y-15816888D01*
X15293372Y-15816888D02*
X15283849Y-15797841D01*
X15283849Y-15797841D02*
X15264801Y-15788317D01*
X15264801Y-15788317D02*
X15236230Y-15788317D01*
X15236230Y-15788317D02*
X15217182Y-15778793D01*
X15217182Y-15778793D02*
X15207658Y-15759746D01*
X15207658Y-15759746D02*
X15207658Y-15750222D01*
X15207658Y-15750222D02*
X15217182Y-15731174D01*
X15217182Y-15731174D02*
X15236230Y-15721650D01*
X15236230Y-15721650D02*
X15264801Y-15721650D01*
X15264801Y-15721650D02*
X15283849Y-15731174D01*
X15360039Y-15931174D02*
X15369563Y-15921650D01*
X15369563Y-15921650D02*
X15388611Y-15893079D01*
X15388611Y-15893079D02*
X15398134Y-15874031D01*
X15398134Y-15874031D02*
X15407658Y-15845460D01*
X15407658Y-15845460D02*
X15417182Y-15797841D01*
X15417182Y-15797841D02*
X15417182Y-15759746D01*
X15417182Y-15759746D02*
X15407658Y-15712127D01*
X15407658Y-15712127D02*
X15398134Y-15683555D01*
X15398134Y-15683555D02*
X15388611Y-15664508D01*
X15388611Y-15664508D02*
X15369563Y-15635936D01*
X15369563Y-15635936D02*
X15360039Y-15626412D01*
D12*
X10347000Y-15980000D02*
X10347000Y-16075000D01*
X10299500Y-16027500D02*
X10394500Y-16027500D01*
D11*
X10693372Y-15918984D02*
X10712420Y-15918984D01*
X10712420Y-15918984D02*
X10731467Y-15928508D01*
X10731467Y-15928508D02*
X10740991Y-15938031D01*
X10740991Y-15938031D02*
X10750515Y-15957079D01*
X10750515Y-15957079D02*
X10760039Y-15995174D01*
X10760039Y-15995174D02*
X10760039Y-16042793D01*
X10760039Y-16042793D02*
X10750515Y-16080888D01*
X10750515Y-16080888D02*
X10740991Y-16099936D01*
X10740991Y-16099936D02*
X10731467Y-16109460D01*
X10731467Y-16109460D02*
X10712420Y-16118984D01*
X10712420Y-16118984D02*
X10693372Y-16118984D01*
X10693372Y-16118984D02*
X10674324Y-16109460D01*
X10674324Y-16109460D02*
X10664801Y-16099936D01*
X10664801Y-16099936D02*
X10655277Y-16080888D01*
X10655277Y-16080888D02*
X10645753Y-16042793D01*
X10645753Y-16042793D02*
X10645753Y-15995174D01*
X10645753Y-15995174D02*
X10655277Y-15957079D01*
X10655277Y-15957079D02*
X10664801Y-15938031D01*
X10664801Y-15938031D02*
X10674324Y-15928508D01*
X10674324Y-15928508D02*
X10693372Y-15918984D01*
X10845753Y-16099936D02*
X10855277Y-16109460D01*
X10855277Y-16109460D02*
X10845753Y-16118984D01*
X10845753Y-16118984D02*
X10836229Y-16109460D01*
X10836229Y-16109460D02*
X10845753Y-16099936D01*
X10845753Y-16099936D02*
X10845753Y-16118984D01*
X10950515Y-16118984D02*
X10988610Y-16118984D01*
X10988610Y-16118984D02*
X11007658Y-16109460D01*
X11007658Y-16109460D02*
X11017182Y-16099936D01*
X11017182Y-16099936D02*
X11036229Y-16071365D01*
X11036229Y-16071365D02*
X11045753Y-16033269D01*
X11045753Y-16033269D02*
X11045753Y-15957079D01*
X11045753Y-15957079D02*
X11036229Y-15938031D01*
X11036229Y-15938031D02*
X11026705Y-15928508D01*
X11026705Y-15928508D02*
X11007658Y-15918984D01*
X11007658Y-15918984D02*
X10969563Y-15918984D01*
X10969563Y-15918984D02*
X10950515Y-15928508D01*
X10950515Y-15928508D02*
X10940991Y-15938031D01*
X10940991Y-15938031D02*
X10931467Y-15957079D01*
X10931467Y-15957079D02*
X10931467Y-16004698D01*
X10931467Y-16004698D02*
X10940991Y-16023746D01*
X10940991Y-16023746D02*
X10950515Y-16033269D01*
X10950515Y-16033269D02*
X10969563Y-16042793D01*
X10969563Y-16042793D02*
X11007658Y-16042793D01*
X11007658Y-16042793D02*
X11026705Y-16033269D01*
X11026705Y-16033269D02*
X11036229Y-16023746D01*
X11036229Y-16023746D02*
X11045753Y-16004698D01*
X11226705Y-15918984D02*
X11131467Y-15918984D01*
X11131467Y-15918984D02*
X11121944Y-16014222D01*
X11121944Y-16014222D02*
X11131467Y-16004698D01*
X11131467Y-16004698D02*
X11150515Y-15995174D01*
X11150515Y-15995174D02*
X11198134Y-15995174D01*
X11198134Y-15995174D02*
X11217182Y-16004698D01*
X11217182Y-16004698D02*
X11226705Y-16014222D01*
X11226705Y-16014222D02*
X11236229Y-16033269D01*
X11236229Y-16033269D02*
X11236229Y-16080888D01*
X11236229Y-16080888D02*
X11226705Y-16099936D01*
X11226705Y-16099936D02*
X11217182Y-16109460D01*
X11217182Y-16109460D02*
X11198134Y-16118984D01*
X11198134Y-16118984D02*
X11150515Y-16118984D01*
X11150515Y-16118984D02*
X11131467Y-16109460D01*
X11131467Y-16109460D02*
X11121944Y-16099936D01*
X11360039Y-15918984D02*
X11379086Y-15918984D01*
X11379086Y-15918984D02*
X11398134Y-15928508D01*
X11398134Y-15928508D02*
X11407658Y-15938031D01*
X11407658Y-15938031D02*
X11417182Y-15957079D01*
X11417182Y-15957079D02*
X11426705Y-15995174D01*
X11426705Y-15995174D02*
X11426705Y-16042793D01*
X11426705Y-16042793D02*
X11417182Y-16080888D01*
X11417182Y-16080888D02*
X11407658Y-16099936D01*
X11407658Y-16099936D02*
X11398134Y-16109460D01*
X11398134Y-16109460D02*
X11379086Y-16118984D01*
X11379086Y-16118984D02*
X11360039Y-16118984D01*
X11360039Y-16118984D02*
X11340991Y-16109460D01*
X11340991Y-16109460D02*
X11331467Y-16099936D01*
X11331467Y-16099936D02*
X11321943Y-16080888D01*
X11321943Y-16080888D02*
X11312420Y-16042793D01*
X11312420Y-16042793D02*
X11312420Y-15995174D01*
X11312420Y-15995174D02*
X11321943Y-15957079D01*
X11321943Y-15957079D02*
X11331467Y-15938031D01*
X11331467Y-15938031D02*
X11340991Y-15928508D01*
X11340991Y-15928508D02*
X11360039Y-15918984D01*
X11512420Y-16118984D02*
X11512420Y-15985650D01*
X11512420Y-16004698D02*
X11521943Y-15995174D01*
X11521943Y-15995174D02*
X11540991Y-15985650D01*
X11540991Y-15985650D02*
X11569563Y-15985650D01*
X11569563Y-15985650D02*
X11588610Y-15995174D01*
X11588610Y-15995174D02*
X11598134Y-16014222D01*
X11598134Y-16014222D02*
X11598134Y-16118984D01*
X11598134Y-16014222D02*
X11607658Y-15995174D01*
X11607658Y-15995174D02*
X11626705Y-15985650D01*
X11626705Y-15985650D02*
X11655277Y-15985650D01*
X11655277Y-15985650D02*
X11674324Y-15995174D01*
X11674324Y-15995174D02*
X11683848Y-16014222D01*
X11683848Y-16014222D02*
X11683848Y-16118984D01*
X11779086Y-16118984D02*
X11779086Y-15985650D01*
X11779086Y-16004698D02*
X11788610Y-15995174D01*
X11788610Y-15995174D02*
X11807658Y-15985650D01*
X11807658Y-15985650D02*
X11836229Y-15985650D01*
X11836229Y-15985650D02*
X11855277Y-15995174D01*
X11855277Y-15995174D02*
X11864801Y-16014222D01*
X11864801Y-16014222D02*
X11864801Y-16118984D01*
X11864801Y-16014222D02*
X11874324Y-15995174D01*
X11874324Y-15995174D02*
X11893372Y-15985650D01*
X11893372Y-15985650D02*
X11921943Y-15985650D01*
X11921943Y-15985650D02*
X11940991Y-15995174D01*
X11940991Y-15995174D02*
X11950515Y-16014222D01*
X11950515Y-16014222D02*
X11950515Y-16118984D01*
X12340991Y-15909460D02*
X12169563Y-16166603D01*
X12598134Y-15918984D02*
X12617182Y-15918984D01*
X12617182Y-15918984D02*
X12636229Y-15928508D01*
X12636229Y-15928508D02*
X12645753Y-15938031D01*
X12645753Y-15938031D02*
X12655277Y-15957079D01*
X12655277Y-15957079D02*
X12664801Y-15995174D01*
X12664801Y-15995174D02*
X12664801Y-16042793D01*
X12664801Y-16042793D02*
X12655277Y-16080888D01*
X12655277Y-16080888D02*
X12645753Y-16099936D01*
X12645753Y-16099936D02*
X12636229Y-16109460D01*
X12636229Y-16109460D02*
X12617182Y-16118984D01*
X12617182Y-16118984D02*
X12598134Y-16118984D01*
X12598134Y-16118984D02*
X12579086Y-16109460D01*
X12579086Y-16109460D02*
X12569563Y-16099936D01*
X12569563Y-16099936D02*
X12560039Y-16080888D01*
X12560039Y-16080888D02*
X12550515Y-16042793D01*
X12550515Y-16042793D02*
X12550515Y-15995174D01*
X12550515Y-15995174D02*
X12560039Y-15957079D01*
X12560039Y-15957079D02*
X12569563Y-15938031D01*
X12569563Y-15938031D02*
X12579086Y-15928508D01*
X12579086Y-15928508D02*
X12598134Y-15918984D01*
X12750515Y-16099936D02*
X12760039Y-16109460D01*
X12760039Y-16109460D02*
X12750515Y-16118984D01*
X12750515Y-16118984D02*
X12740991Y-16109460D01*
X12740991Y-16109460D02*
X12750515Y-16099936D01*
X12750515Y-16099936D02*
X12750515Y-16118984D01*
X12883848Y-15918984D02*
X12902896Y-15918984D01*
X12902896Y-15918984D02*
X12921944Y-15928508D01*
X12921944Y-15928508D02*
X12931467Y-15938031D01*
X12931467Y-15938031D02*
X12940991Y-15957079D01*
X12940991Y-15957079D02*
X12950515Y-15995174D01*
X12950515Y-15995174D02*
X12950515Y-16042793D01*
X12950515Y-16042793D02*
X12940991Y-16080888D01*
X12940991Y-16080888D02*
X12931467Y-16099936D01*
X12931467Y-16099936D02*
X12921944Y-16109460D01*
X12921944Y-16109460D02*
X12902896Y-16118984D01*
X12902896Y-16118984D02*
X12883848Y-16118984D01*
X12883848Y-16118984D02*
X12864801Y-16109460D01*
X12864801Y-16109460D02*
X12855277Y-16099936D01*
X12855277Y-16099936D02*
X12845753Y-16080888D01*
X12845753Y-16080888D02*
X12836229Y-16042793D01*
X12836229Y-16042793D02*
X12836229Y-15995174D01*
X12836229Y-15995174D02*
X12845753Y-15957079D01*
X12845753Y-15957079D02*
X12855277Y-15938031D01*
X12855277Y-15938031D02*
X12864801Y-15928508D01*
X12864801Y-15928508D02*
X12883848Y-15918984D01*
X13017182Y-15918984D02*
X13140991Y-15918984D01*
X13140991Y-15918984D02*
X13074325Y-15995174D01*
X13074325Y-15995174D02*
X13102896Y-15995174D01*
X13102896Y-15995174D02*
X13121944Y-16004698D01*
X13121944Y-16004698D02*
X13131467Y-16014222D01*
X13131467Y-16014222D02*
X13140991Y-16033269D01*
X13140991Y-16033269D02*
X13140991Y-16080888D01*
X13140991Y-16080888D02*
X13131467Y-16099936D01*
X13131467Y-16099936D02*
X13121944Y-16109460D01*
X13121944Y-16109460D02*
X13102896Y-16118984D01*
X13102896Y-16118984D02*
X13045753Y-16118984D01*
X13045753Y-16118984D02*
X13026706Y-16109460D01*
X13026706Y-16109460D02*
X13017182Y-16099936D01*
X13207658Y-15918984D02*
X13340991Y-15918984D01*
X13340991Y-15918984D02*
X13255277Y-16118984D01*
X13502896Y-15985650D02*
X13502896Y-16118984D01*
X13455277Y-15909460D02*
X13407658Y-16052317D01*
X13407658Y-16052317D02*
X13531467Y-16052317D01*
X13598134Y-15918984D02*
X13598134Y-15957079D01*
X13674325Y-15918984D02*
X13674325Y-15957079D01*
X13969563Y-16195174D02*
X13960039Y-16185650D01*
X13960039Y-16185650D02*
X13940991Y-16157079D01*
X13940991Y-16157079D02*
X13931468Y-16138031D01*
X13931468Y-16138031D02*
X13921944Y-16109460D01*
X13921944Y-16109460D02*
X13912420Y-16061841D01*
X13912420Y-16061841D02*
X13912420Y-16023746D01*
X13912420Y-16023746D02*
X13921944Y-15976127D01*
X13921944Y-15976127D02*
X13931468Y-15947555D01*
X13931468Y-15947555D02*
X13940991Y-15928508D01*
X13940991Y-15928508D02*
X13960039Y-15899936D01*
X13960039Y-15899936D02*
X13969563Y-15890412D01*
X14074325Y-16004698D02*
X14055277Y-15995174D01*
X14055277Y-15995174D02*
X14045753Y-15985650D01*
X14045753Y-15985650D02*
X14036229Y-15966603D01*
X14036229Y-15966603D02*
X14036229Y-15957079D01*
X14036229Y-15957079D02*
X14045753Y-15938031D01*
X14045753Y-15938031D02*
X14055277Y-15928508D01*
X14055277Y-15928508D02*
X14074325Y-15918984D01*
X14074325Y-15918984D02*
X14112420Y-15918984D01*
X14112420Y-15918984D02*
X14131468Y-15928508D01*
X14131468Y-15928508D02*
X14140991Y-15938031D01*
X14140991Y-15938031D02*
X14150515Y-15957079D01*
X14150515Y-15957079D02*
X14150515Y-15966603D01*
X14150515Y-15966603D02*
X14140991Y-15985650D01*
X14140991Y-15985650D02*
X14131468Y-15995174D01*
X14131468Y-15995174D02*
X14112420Y-16004698D01*
X14112420Y-16004698D02*
X14074325Y-16004698D01*
X14074325Y-16004698D02*
X14055277Y-16014222D01*
X14055277Y-16014222D02*
X14045753Y-16023746D01*
X14045753Y-16023746D02*
X14036229Y-16042793D01*
X14036229Y-16042793D02*
X14036229Y-16080888D01*
X14036229Y-16080888D02*
X14045753Y-16099936D01*
X14045753Y-16099936D02*
X14055277Y-16109460D01*
X14055277Y-16109460D02*
X14074325Y-16118984D01*
X14074325Y-16118984D02*
X14112420Y-16118984D01*
X14112420Y-16118984D02*
X14131468Y-16109460D01*
X14131468Y-16109460D02*
X14140991Y-16099936D01*
X14140991Y-16099936D02*
X14150515Y-16080888D01*
X14150515Y-16080888D02*
X14150515Y-16042793D01*
X14150515Y-16042793D02*
X14140991Y-16023746D01*
X14140991Y-16023746D02*
X14131468Y-16014222D01*
X14131468Y-16014222D02*
X14112420Y-16004698D01*
X14388610Y-16118984D02*
X14388610Y-15918984D01*
X14474325Y-16118984D02*
X14474325Y-16014222D01*
X14474325Y-16014222D02*
X14464801Y-15995174D01*
X14464801Y-15995174D02*
X14445753Y-15985650D01*
X14445753Y-15985650D02*
X14417182Y-15985650D01*
X14417182Y-15985650D02*
X14398134Y-15995174D01*
X14398134Y-15995174D02*
X14388610Y-16004698D01*
X14598134Y-16118984D02*
X14579087Y-16109460D01*
X14579087Y-16109460D02*
X14569563Y-16099936D01*
X14569563Y-16099936D02*
X14560039Y-16080888D01*
X14560039Y-16080888D02*
X14560039Y-16023746D01*
X14560039Y-16023746D02*
X14569563Y-16004698D01*
X14569563Y-16004698D02*
X14579087Y-15995174D01*
X14579087Y-15995174D02*
X14598134Y-15985650D01*
X14598134Y-15985650D02*
X14626706Y-15985650D01*
X14626706Y-15985650D02*
X14645753Y-15995174D01*
X14645753Y-15995174D02*
X14655277Y-16004698D01*
X14655277Y-16004698D02*
X14664801Y-16023746D01*
X14664801Y-16023746D02*
X14664801Y-16080888D01*
X14664801Y-16080888D02*
X14655277Y-16099936D01*
X14655277Y-16099936D02*
X14645753Y-16109460D01*
X14645753Y-16109460D02*
X14626706Y-16118984D01*
X14626706Y-16118984D02*
X14598134Y-16118984D01*
X14779087Y-16118984D02*
X14760039Y-16109460D01*
X14760039Y-16109460D02*
X14750515Y-16090412D01*
X14750515Y-16090412D02*
X14750515Y-15918984D01*
X14931468Y-16109460D02*
X14912420Y-16118984D01*
X14912420Y-16118984D02*
X14874325Y-16118984D01*
X14874325Y-16118984D02*
X14855277Y-16109460D01*
X14855277Y-16109460D02*
X14845753Y-16090412D01*
X14845753Y-16090412D02*
X14845753Y-16014222D01*
X14845753Y-16014222D02*
X14855277Y-15995174D01*
X14855277Y-15995174D02*
X14874325Y-15985650D01*
X14874325Y-15985650D02*
X14912420Y-15985650D01*
X14912420Y-15985650D02*
X14931468Y-15995174D01*
X14931468Y-15995174D02*
X14940991Y-16014222D01*
X14940991Y-16014222D02*
X14940991Y-16033269D01*
X14940991Y-16033269D02*
X14845753Y-16052317D01*
X15017182Y-16109460D02*
X15036230Y-16118984D01*
X15036230Y-16118984D02*
X15074325Y-16118984D01*
X15074325Y-16118984D02*
X15093372Y-16109460D01*
X15093372Y-16109460D02*
X15102896Y-16090412D01*
X15102896Y-16090412D02*
X15102896Y-16080888D01*
X15102896Y-16080888D02*
X15093372Y-16061841D01*
X15093372Y-16061841D02*
X15074325Y-16052317D01*
X15074325Y-16052317D02*
X15045753Y-16052317D01*
X15045753Y-16052317D02*
X15026706Y-16042793D01*
X15026706Y-16042793D02*
X15017182Y-16023746D01*
X15017182Y-16023746D02*
X15017182Y-16014222D01*
X15017182Y-16014222D02*
X15026706Y-15995174D01*
X15026706Y-15995174D02*
X15045753Y-15985650D01*
X15045753Y-15985650D02*
X15074325Y-15985650D01*
X15074325Y-15985650D02*
X15093372Y-15995174D01*
X15169563Y-16195174D02*
X15179087Y-16185650D01*
X15179087Y-16185650D02*
X15198134Y-16157079D01*
X15198134Y-16157079D02*
X15207658Y-16138031D01*
X15207658Y-16138031D02*
X15217182Y-16109460D01*
X15217182Y-16109460D02*
X15226706Y-16061841D01*
X15226706Y-16061841D02*
X15226706Y-16023746D01*
X15226706Y-16023746D02*
X15217182Y-15976127D01*
X15217182Y-15976127D02*
X15207658Y-15947555D01*
X15207658Y-15947555D02*
X15198134Y-15928508D01*
X15198134Y-15928508D02*
X15179087Y-15899936D01*
X15179087Y-15899936D02*
X15169563Y-15890412D01*
D12*
X10379856Y-16326856D02*
X10379856Y-16256144D01*
X10309144Y-16256144D01*
X10309144Y-16326856D01*
X10379856Y-16326856D01*
D11*
X10760039Y-16382984D02*
X10645753Y-16382984D01*
X10702896Y-16382984D02*
X10702896Y-16182984D01*
X10702896Y-16182984D02*
X10683848Y-16211555D01*
X10683848Y-16211555D02*
X10664801Y-16230603D01*
X10664801Y-16230603D02*
X10645753Y-16240127D01*
X10845753Y-16363936D02*
X10855277Y-16373460D01*
X10855277Y-16373460D02*
X10845753Y-16382984D01*
X10845753Y-16382984D02*
X10836229Y-16373460D01*
X10836229Y-16373460D02*
X10845753Y-16363936D01*
X10845753Y-16363936D02*
X10845753Y-16382984D01*
X10979086Y-16182984D02*
X10998134Y-16182984D01*
X10998134Y-16182984D02*
X11017182Y-16192508D01*
X11017182Y-16192508D02*
X11026705Y-16202031D01*
X11026705Y-16202031D02*
X11036229Y-16221079D01*
X11036229Y-16221079D02*
X11045753Y-16259174D01*
X11045753Y-16259174D02*
X11045753Y-16306793D01*
X11045753Y-16306793D02*
X11036229Y-16344888D01*
X11036229Y-16344888D02*
X11026705Y-16363936D01*
X11026705Y-16363936D02*
X11017182Y-16373460D01*
X11017182Y-16373460D02*
X10998134Y-16382984D01*
X10998134Y-16382984D02*
X10979086Y-16382984D01*
X10979086Y-16382984D02*
X10960039Y-16373460D01*
X10960039Y-16373460D02*
X10950515Y-16363936D01*
X10950515Y-16363936D02*
X10940991Y-16344888D01*
X10940991Y-16344888D02*
X10931467Y-16306793D01*
X10931467Y-16306793D02*
X10931467Y-16259174D01*
X10931467Y-16259174D02*
X10940991Y-16221079D01*
X10940991Y-16221079D02*
X10950515Y-16202031D01*
X10950515Y-16202031D02*
X10960039Y-16192508D01*
X10960039Y-16192508D02*
X10979086Y-16182984D01*
X11169563Y-16182984D02*
X11188610Y-16182984D01*
X11188610Y-16182984D02*
X11207658Y-16192508D01*
X11207658Y-16192508D02*
X11217182Y-16202031D01*
X11217182Y-16202031D02*
X11226705Y-16221079D01*
X11226705Y-16221079D02*
X11236229Y-16259174D01*
X11236229Y-16259174D02*
X11236229Y-16306793D01*
X11236229Y-16306793D02*
X11226705Y-16344888D01*
X11226705Y-16344888D02*
X11217182Y-16363936D01*
X11217182Y-16363936D02*
X11207658Y-16373460D01*
X11207658Y-16373460D02*
X11188610Y-16382984D01*
X11188610Y-16382984D02*
X11169563Y-16382984D01*
X11169563Y-16382984D02*
X11150515Y-16373460D01*
X11150515Y-16373460D02*
X11140991Y-16363936D01*
X11140991Y-16363936D02*
X11131467Y-16344888D01*
X11131467Y-16344888D02*
X11121944Y-16306793D01*
X11121944Y-16306793D02*
X11121944Y-16259174D01*
X11121944Y-16259174D02*
X11131467Y-16221079D01*
X11131467Y-16221079D02*
X11140991Y-16202031D01*
X11140991Y-16202031D02*
X11150515Y-16192508D01*
X11150515Y-16192508D02*
X11169563Y-16182984D01*
X11360039Y-16182984D02*
X11379086Y-16182984D01*
X11379086Y-16182984D02*
X11398134Y-16192508D01*
X11398134Y-16192508D02*
X11407658Y-16202031D01*
X11407658Y-16202031D02*
X11417182Y-16221079D01*
X11417182Y-16221079D02*
X11426705Y-16259174D01*
X11426705Y-16259174D02*
X11426705Y-16306793D01*
X11426705Y-16306793D02*
X11417182Y-16344888D01*
X11417182Y-16344888D02*
X11407658Y-16363936D01*
X11407658Y-16363936D02*
X11398134Y-16373460D01*
X11398134Y-16373460D02*
X11379086Y-16382984D01*
X11379086Y-16382984D02*
X11360039Y-16382984D01*
X11360039Y-16382984D02*
X11340991Y-16373460D01*
X11340991Y-16373460D02*
X11331467Y-16363936D01*
X11331467Y-16363936D02*
X11321943Y-16344888D01*
X11321943Y-16344888D02*
X11312420Y-16306793D01*
X11312420Y-16306793D02*
X11312420Y-16259174D01*
X11312420Y-16259174D02*
X11321943Y-16221079D01*
X11321943Y-16221079D02*
X11331467Y-16202031D01*
X11331467Y-16202031D02*
X11340991Y-16192508D01*
X11340991Y-16192508D02*
X11360039Y-16182984D01*
X11512420Y-16382984D02*
X11512420Y-16249650D01*
X11512420Y-16268698D02*
X11521943Y-16259174D01*
X11521943Y-16259174D02*
X11540991Y-16249650D01*
X11540991Y-16249650D02*
X11569563Y-16249650D01*
X11569563Y-16249650D02*
X11588610Y-16259174D01*
X11588610Y-16259174D02*
X11598134Y-16278222D01*
X11598134Y-16278222D02*
X11598134Y-16382984D01*
X11598134Y-16278222D02*
X11607658Y-16259174D01*
X11607658Y-16259174D02*
X11626705Y-16249650D01*
X11626705Y-16249650D02*
X11655277Y-16249650D01*
X11655277Y-16249650D02*
X11674324Y-16259174D01*
X11674324Y-16259174D02*
X11683848Y-16278222D01*
X11683848Y-16278222D02*
X11683848Y-16382984D01*
X11779086Y-16382984D02*
X11779086Y-16249650D01*
X11779086Y-16268698D02*
X11788610Y-16259174D01*
X11788610Y-16259174D02*
X11807658Y-16249650D01*
X11807658Y-16249650D02*
X11836229Y-16249650D01*
X11836229Y-16249650D02*
X11855277Y-16259174D01*
X11855277Y-16259174D02*
X11864801Y-16278222D01*
X11864801Y-16278222D02*
X11864801Y-16382984D01*
X11864801Y-16278222D02*
X11874324Y-16259174D01*
X11874324Y-16259174D02*
X11893372Y-16249650D01*
X11893372Y-16249650D02*
X11921943Y-16249650D01*
X11921943Y-16249650D02*
X11940991Y-16259174D01*
X11940991Y-16259174D02*
X11950515Y-16278222D01*
X11950515Y-16278222D02*
X11950515Y-16382984D01*
X12340991Y-16173460D02*
X12169563Y-16430603D01*
X12598134Y-16182984D02*
X12617182Y-16182984D01*
X12617182Y-16182984D02*
X12636229Y-16192508D01*
X12636229Y-16192508D02*
X12645753Y-16202031D01*
X12645753Y-16202031D02*
X12655277Y-16221079D01*
X12655277Y-16221079D02*
X12664801Y-16259174D01*
X12664801Y-16259174D02*
X12664801Y-16306793D01*
X12664801Y-16306793D02*
X12655277Y-16344888D01*
X12655277Y-16344888D02*
X12645753Y-16363936D01*
X12645753Y-16363936D02*
X12636229Y-16373460D01*
X12636229Y-16373460D02*
X12617182Y-16382984D01*
X12617182Y-16382984D02*
X12598134Y-16382984D01*
X12598134Y-16382984D02*
X12579086Y-16373460D01*
X12579086Y-16373460D02*
X12569563Y-16363936D01*
X12569563Y-16363936D02*
X12560039Y-16344888D01*
X12560039Y-16344888D02*
X12550515Y-16306793D01*
X12550515Y-16306793D02*
X12550515Y-16259174D01*
X12550515Y-16259174D02*
X12560039Y-16221079D01*
X12560039Y-16221079D02*
X12569563Y-16202031D01*
X12569563Y-16202031D02*
X12579086Y-16192508D01*
X12579086Y-16192508D02*
X12598134Y-16182984D01*
X12750515Y-16363936D02*
X12760039Y-16373460D01*
X12760039Y-16373460D02*
X12750515Y-16382984D01*
X12750515Y-16382984D02*
X12740991Y-16373460D01*
X12740991Y-16373460D02*
X12750515Y-16363936D01*
X12750515Y-16363936D02*
X12750515Y-16382984D01*
X12883848Y-16182984D02*
X12902896Y-16182984D01*
X12902896Y-16182984D02*
X12921944Y-16192508D01*
X12921944Y-16192508D02*
X12931467Y-16202031D01*
X12931467Y-16202031D02*
X12940991Y-16221079D01*
X12940991Y-16221079D02*
X12950515Y-16259174D01*
X12950515Y-16259174D02*
X12950515Y-16306793D01*
X12950515Y-16306793D02*
X12940991Y-16344888D01*
X12940991Y-16344888D02*
X12931467Y-16363936D01*
X12931467Y-16363936D02*
X12921944Y-16373460D01*
X12921944Y-16373460D02*
X12902896Y-16382984D01*
X12902896Y-16382984D02*
X12883848Y-16382984D01*
X12883848Y-16382984D02*
X12864801Y-16373460D01*
X12864801Y-16373460D02*
X12855277Y-16363936D01*
X12855277Y-16363936D02*
X12845753Y-16344888D01*
X12845753Y-16344888D02*
X12836229Y-16306793D01*
X12836229Y-16306793D02*
X12836229Y-16259174D01*
X12836229Y-16259174D02*
X12845753Y-16221079D01*
X12845753Y-16221079D02*
X12855277Y-16202031D01*
X12855277Y-16202031D02*
X12864801Y-16192508D01*
X12864801Y-16192508D02*
X12883848Y-16182984D01*
X13017182Y-16182984D02*
X13140991Y-16182984D01*
X13140991Y-16182984D02*
X13074325Y-16259174D01*
X13074325Y-16259174D02*
X13102896Y-16259174D01*
X13102896Y-16259174D02*
X13121944Y-16268698D01*
X13121944Y-16268698D02*
X13131467Y-16278222D01*
X13131467Y-16278222D02*
X13140991Y-16297269D01*
X13140991Y-16297269D02*
X13140991Y-16344888D01*
X13140991Y-16344888D02*
X13131467Y-16363936D01*
X13131467Y-16363936D02*
X13121944Y-16373460D01*
X13121944Y-16373460D02*
X13102896Y-16382984D01*
X13102896Y-16382984D02*
X13045753Y-16382984D01*
X13045753Y-16382984D02*
X13026706Y-16373460D01*
X13026706Y-16373460D02*
X13017182Y-16363936D01*
X13236229Y-16382984D02*
X13274325Y-16382984D01*
X13274325Y-16382984D02*
X13293372Y-16373460D01*
X13293372Y-16373460D02*
X13302896Y-16363936D01*
X13302896Y-16363936D02*
X13321944Y-16335365D01*
X13321944Y-16335365D02*
X13331467Y-16297269D01*
X13331467Y-16297269D02*
X13331467Y-16221079D01*
X13331467Y-16221079D02*
X13321944Y-16202031D01*
X13321944Y-16202031D02*
X13312420Y-16192508D01*
X13312420Y-16192508D02*
X13293372Y-16182984D01*
X13293372Y-16182984D02*
X13255277Y-16182984D01*
X13255277Y-16182984D02*
X13236229Y-16192508D01*
X13236229Y-16192508D02*
X13226706Y-16202031D01*
X13226706Y-16202031D02*
X13217182Y-16221079D01*
X13217182Y-16221079D02*
X13217182Y-16268698D01*
X13217182Y-16268698D02*
X13226706Y-16287746D01*
X13226706Y-16287746D02*
X13236229Y-16297269D01*
X13236229Y-16297269D02*
X13255277Y-16306793D01*
X13255277Y-16306793D02*
X13293372Y-16306793D01*
X13293372Y-16306793D02*
X13312420Y-16297269D01*
X13312420Y-16297269D02*
X13321944Y-16287746D01*
X13321944Y-16287746D02*
X13331467Y-16268698D01*
X13502896Y-16249650D02*
X13502896Y-16382984D01*
X13455277Y-16173460D02*
X13407658Y-16316317D01*
X13407658Y-16316317D02*
X13531467Y-16316317D01*
X13598134Y-16182984D02*
X13598134Y-16221079D01*
X13674325Y-16182984D02*
X13674325Y-16221079D01*
X13969563Y-16459174D02*
X13960039Y-16449650D01*
X13960039Y-16449650D02*
X13940991Y-16421079D01*
X13940991Y-16421079D02*
X13931468Y-16402031D01*
X13931468Y-16402031D02*
X13921944Y-16373460D01*
X13921944Y-16373460D02*
X13912420Y-16325841D01*
X13912420Y-16325841D02*
X13912420Y-16287746D01*
X13912420Y-16287746D02*
X13921944Y-16240127D01*
X13921944Y-16240127D02*
X13931468Y-16211555D01*
X13931468Y-16211555D02*
X13940991Y-16192508D01*
X13940991Y-16192508D02*
X13960039Y-16163936D01*
X13960039Y-16163936D02*
X13969563Y-16154412D01*
X14026706Y-16182984D02*
X14150515Y-16182984D01*
X14150515Y-16182984D02*
X14083848Y-16259174D01*
X14083848Y-16259174D02*
X14112420Y-16259174D01*
X14112420Y-16259174D02*
X14131468Y-16268698D01*
X14131468Y-16268698D02*
X14140991Y-16278222D01*
X14140991Y-16278222D02*
X14150515Y-16297269D01*
X14150515Y-16297269D02*
X14150515Y-16344888D01*
X14150515Y-16344888D02*
X14140991Y-16363936D01*
X14140991Y-16363936D02*
X14131468Y-16373460D01*
X14131468Y-16373460D02*
X14112420Y-16382984D01*
X14112420Y-16382984D02*
X14055277Y-16382984D01*
X14055277Y-16382984D02*
X14036229Y-16373460D01*
X14036229Y-16373460D02*
X14026706Y-16363936D01*
X14388610Y-16382984D02*
X14388610Y-16182984D01*
X14474325Y-16382984D02*
X14474325Y-16278222D01*
X14474325Y-16278222D02*
X14464801Y-16259174D01*
X14464801Y-16259174D02*
X14445753Y-16249650D01*
X14445753Y-16249650D02*
X14417182Y-16249650D01*
X14417182Y-16249650D02*
X14398134Y-16259174D01*
X14398134Y-16259174D02*
X14388610Y-16268698D01*
X14598134Y-16382984D02*
X14579087Y-16373460D01*
X14579087Y-16373460D02*
X14569563Y-16363936D01*
X14569563Y-16363936D02*
X14560039Y-16344888D01*
X14560039Y-16344888D02*
X14560039Y-16287746D01*
X14560039Y-16287746D02*
X14569563Y-16268698D01*
X14569563Y-16268698D02*
X14579087Y-16259174D01*
X14579087Y-16259174D02*
X14598134Y-16249650D01*
X14598134Y-16249650D02*
X14626706Y-16249650D01*
X14626706Y-16249650D02*
X14645753Y-16259174D01*
X14645753Y-16259174D02*
X14655277Y-16268698D01*
X14655277Y-16268698D02*
X14664801Y-16287746D01*
X14664801Y-16287746D02*
X14664801Y-16344888D01*
X14664801Y-16344888D02*
X14655277Y-16363936D01*
X14655277Y-16363936D02*
X14645753Y-16373460D01*
X14645753Y-16373460D02*
X14626706Y-16382984D01*
X14626706Y-16382984D02*
X14598134Y-16382984D01*
X14779087Y-16382984D02*
X14760039Y-16373460D01*
X14760039Y-16373460D02*
X14750515Y-16354412D01*
X14750515Y-16354412D02*
X14750515Y-16182984D01*
X14931468Y-16373460D02*
X14912420Y-16382984D01*
X14912420Y-16382984D02*
X14874325Y-16382984D01*
X14874325Y-16382984D02*
X14855277Y-16373460D01*
X14855277Y-16373460D02*
X14845753Y-16354412D01*
X14845753Y-16354412D02*
X14845753Y-16278222D01*
X14845753Y-16278222D02*
X14855277Y-16259174D01*
X14855277Y-16259174D02*
X14874325Y-16249650D01*
X14874325Y-16249650D02*
X14912420Y-16249650D01*
X14912420Y-16249650D02*
X14931468Y-16259174D01*
X14931468Y-16259174D02*
X14940991Y-16278222D01*
X14940991Y-16278222D02*
X14940991Y-16297269D01*
X14940991Y-16297269D02*
X14845753Y-16316317D01*
X15017182Y-16373460D02*
X15036230Y-16382984D01*
X15036230Y-16382984D02*
X15074325Y-16382984D01*
X15074325Y-16382984D02*
X15093372Y-16373460D01*
X15093372Y-16373460D02*
X15102896Y-16354412D01*
X15102896Y-16354412D02*
X15102896Y-16344888D01*
X15102896Y-16344888D02*
X15093372Y-16325841D01*
X15093372Y-16325841D02*
X15074325Y-16316317D01*
X15074325Y-16316317D02*
X15045753Y-16316317D01*
X15045753Y-16316317D02*
X15026706Y-16306793D01*
X15026706Y-16306793D02*
X15017182Y-16287746D01*
X15017182Y-16287746D02*
X15017182Y-16278222D01*
X15017182Y-16278222D02*
X15026706Y-16259174D01*
X15026706Y-16259174D02*
X15045753Y-16249650D01*
X15045753Y-16249650D02*
X15074325Y-16249650D01*
X15074325Y-16249650D02*
X15093372Y-16259174D01*
X15169563Y-16459174D02*
X15179087Y-16449650D01*
X15179087Y-16449650D02*
X15198134Y-16421079D01*
X15198134Y-16421079D02*
X15207658Y-16402031D01*
X15207658Y-16402031D02*
X15217182Y-16373460D01*
X15217182Y-16373460D02*
X15226706Y-16325841D01*
X15226706Y-16325841D02*
X15226706Y-16287746D01*
X15226706Y-16287746D02*
X15217182Y-16240127D01*
X15217182Y-16240127D02*
X15207658Y-16211555D01*
X15207658Y-16211555D02*
X15198134Y-16192508D01*
X15198134Y-16192508D02*
X15179087Y-16163936D01*
X15179087Y-16163936D02*
X15169563Y-16154412D01*
D13*
X10329500Y-16620500D02*
X10394500Y-16555500D01*
X10329500Y-16490500D01*
X10264500Y-16555500D01*
X10329500Y-16620500D01*
D11*
X10760039Y-16646984D02*
X10645753Y-16646984D01*
X10702896Y-16646984D02*
X10702896Y-16446984D01*
X10702896Y-16446984D02*
X10683848Y-16475555D01*
X10683848Y-16475555D02*
X10664801Y-16494603D01*
X10664801Y-16494603D02*
X10645753Y-16504127D01*
X10845753Y-16627936D02*
X10855277Y-16637460D01*
X10855277Y-16637460D02*
X10845753Y-16646984D01*
X10845753Y-16646984D02*
X10836229Y-16637460D01*
X10836229Y-16637460D02*
X10845753Y-16627936D01*
X10845753Y-16627936D02*
X10845753Y-16646984D01*
X10921944Y-16446984D02*
X11045753Y-16446984D01*
X11045753Y-16446984D02*
X10979086Y-16523174D01*
X10979086Y-16523174D02*
X11007658Y-16523174D01*
X11007658Y-16523174D02*
X11026705Y-16532698D01*
X11026705Y-16532698D02*
X11036229Y-16542222D01*
X11036229Y-16542222D02*
X11045753Y-16561269D01*
X11045753Y-16561269D02*
X11045753Y-16608888D01*
X11045753Y-16608888D02*
X11036229Y-16627936D01*
X11036229Y-16627936D02*
X11026705Y-16637460D01*
X11026705Y-16637460D02*
X11007658Y-16646984D01*
X11007658Y-16646984D02*
X10950515Y-16646984D01*
X10950515Y-16646984D02*
X10931467Y-16637460D01*
X10931467Y-16637460D02*
X10921944Y-16627936D01*
X11169563Y-16446984D02*
X11188610Y-16446984D01*
X11188610Y-16446984D02*
X11207658Y-16456508D01*
X11207658Y-16456508D02*
X11217182Y-16466031D01*
X11217182Y-16466031D02*
X11226705Y-16485079D01*
X11226705Y-16485079D02*
X11236229Y-16523174D01*
X11236229Y-16523174D02*
X11236229Y-16570793D01*
X11236229Y-16570793D02*
X11226705Y-16608888D01*
X11226705Y-16608888D02*
X11217182Y-16627936D01*
X11217182Y-16627936D02*
X11207658Y-16637460D01*
X11207658Y-16637460D02*
X11188610Y-16646984D01*
X11188610Y-16646984D02*
X11169563Y-16646984D01*
X11169563Y-16646984D02*
X11150515Y-16637460D01*
X11150515Y-16637460D02*
X11140991Y-16627936D01*
X11140991Y-16627936D02*
X11131467Y-16608888D01*
X11131467Y-16608888D02*
X11121944Y-16570793D01*
X11121944Y-16570793D02*
X11121944Y-16523174D01*
X11121944Y-16523174D02*
X11131467Y-16485079D01*
X11131467Y-16485079D02*
X11140991Y-16466031D01*
X11140991Y-16466031D02*
X11150515Y-16456508D01*
X11150515Y-16456508D02*
X11169563Y-16446984D01*
X11360039Y-16446984D02*
X11379086Y-16446984D01*
X11379086Y-16446984D02*
X11398134Y-16456508D01*
X11398134Y-16456508D02*
X11407658Y-16466031D01*
X11407658Y-16466031D02*
X11417182Y-16485079D01*
X11417182Y-16485079D02*
X11426705Y-16523174D01*
X11426705Y-16523174D02*
X11426705Y-16570793D01*
X11426705Y-16570793D02*
X11417182Y-16608888D01*
X11417182Y-16608888D02*
X11407658Y-16627936D01*
X11407658Y-16627936D02*
X11398134Y-16637460D01*
X11398134Y-16637460D02*
X11379086Y-16646984D01*
X11379086Y-16646984D02*
X11360039Y-16646984D01*
X11360039Y-16646984D02*
X11340991Y-16637460D01*
X11340991Y-16637460D02*
X11331467Y-16627936D01*
X11331467Y-16627936D02*
X11321943Y-16608888D01*
X11321943Y-16608888D02*
X11312420Y-16570793D01*
X11312420Y-16570793D02*
X11312420Y-16523174D01*
X11312420Y-16523174D02*
X11321943Y-16485079D01*
X11321943Y-16485079D02*
X11331467Y-16466031D01*
X11331467Y-16466031D02*
X11340991Y-16456508D01*
X11340991Y-16456508D02*
X11360039Y-16446984D01*
X11512420Y-16646984D02*
X11512420Y-16513650D01*
X11512420Y-16532698D02*
X11521943Y-16523174D01*
X11521943Y-16523174D02*
X11540991Y-16513650D01*
X11540991Y-16513650D02*
X11569563Y-16513650D01*
X11569563Y-16513650D02*
X11588610Y-16523174D01*
X11588610Y-16523174D02*
X11598134Y-16542222D01*
X11598134Y-16542222D02*
X11598134Y-16646984D01*
X11598134Y-16542222D02*
X11607658Y-16523174D01*
X11607658Y-16523174D02*
X11626705Y-16513650D01*
X11626705Y-16513650D02*
X11655277Y-16513650D01*
X11655277Y-16513650D02*
X11674324Y-16523174D01*
X11674324Y-16523174D02*
X11683848Y-16542222D01*
X11683848Y-16542222D02*
X11683848Y-16646984D01*
X11779086Y-16646984D02*
X11779086Y-16513650D01*
X11779086Y-16532698D02*
X11788610Y-16523174D01*
X11788610Y-16523174D02*
X11807658Y-16513650D01*
X11807658Y-16513650D02*
X11836229Y-16513650D01*
X11836229Y-16513650D02*
X11855277Y-16523174D01*
X11855277Y-16523174D02*
X11864801Y-16542222D01*
X11864801Y-16542222D02*
X11864801Y-16646984D01*
X11864801Y-16542222D02*
X11874324Y-16523174D01*
X11874324Y-16523174D02*
X11893372Y-16513650D01*
X11893372Y-16513650D02*
X11921943Y-16513650D01*
X11921943Y-16513650D02*
X11940991Y-16523174D01*
X11940991Y-16523174D02*
X11950515Y-16542222D01*
X11950515Y-16542222D02*
X11950515Y-16646984D01*
X12340991Y-16437460D02*
X12169563Y-16694603D01*
X12598134Y-16446984D02*
X12617182Y-16446984D01*
X12617182Y-16446984D02*
X12636229Y-16456508D01*
X12636229Y-16456508D02*
X12645753Y-16466031D01*
X12645753Y-16466031D02*
X12655277Y-16485079D01*
X12655277Y-16485079D02*
X12664801Y-16523174D01*
X12664801Y-16523174D02*
X12664801Y-16570793D01*
X12664801Y-16570793D02*
X12655277Y-16608888D01*
X12655277Y-16608888D02*
X12645753Y-16627936D01*
X12645753Y-16627936D02*
X12636229Y-16637460D01*
X12636229Y-16637460D02*
X12617182Y-16646984D01*
X12617182Y-16646984D02*
X12598134Y-16646984D01*
X12598134Y-16646984D02*
X12579086Y-16637460D01*
X12579086Y-16637460D02*
X12569563Y-16627936D01*
X12569563Y-16627936D02*
X12560039Y-16608888D01*
X12560039Y-16608888D02*
X12550515Y-16570793D01*
X12550515Y-16570793D02*
X12550515Y-16523174D01*
X12550515Y-16523174D02*
X12560039Y-16485079D01*
X12560039Y-16485079D02*
X12569563Y-16466031D01*
X12569563Y-16466031D02*
X12579086Y-16456508D01*
X12579086Y-16456508D02*
X12598134Y-16446984D01*
X12750515Y-16627936D02*
X12760039Y-16637460D01*
X12760039Y-16637460D02*
X12750515Y-16646984D01*
X12750515Y-16646984D02*
X12740991Y-16637460D01*
X12740991Y-16637460D02*
X12750515Y-16627936D01*
X12750515Y-16627936D02*
X12750515Y-16646984D01*
X12883848Y-16446984D02*
X12902896Y-16446984D01*
X12902896Y-16446984D02*
X12921944Y-16456508D01*
X12921944Y-16456508D02*
X12931467Y-16466031D01*
X12931467Y-16466031D02*
X12940991Y-16485079D01*
X12940991Y-16485079D02*
X12950515Y-16523174D01*
X12950515Y-16523174D02*
X12950515Y-16570793D01*
X12950515Y-16570793D02*
X12940991Y-16608888D01*
X12940991Y-16608888D02*
X12931467Y-16627936D01*
X12931467Y-16627936D02*
X12921944Y-16637460D01*
X12921944Y-16637460D02*
X12902896Y-16646984D01*
X12902896Y-16646984D02*
X12883848Y-16646984D01*
X12883848Y-16646984D02*
X12864801Y-16637460D01*
X12864801Y-16637460D02*
X12855277Y-16627936D01*
X12855277Y-16627936D02*
X12845753Y-16608888D01*
X12845753Y-16608888D02*
X12836229Y-16570793D01*
X12836229Y-16570793D02*
X12836229Y-16523174D01*
X12836229Y-16523174D02*
X12845753Y-16485079D01*
X12845753Y-16485079D02*
X12855277Y-16466031D01*
X12855277Y-16466031D02*
X12864801Y-16456508D01*
X12864801Y-16456508D02*
X12883848Y-16446984D01*
X13131467Y-16446984D02*
X13036229Y-16446984D01*
X13036229Y-16446984D02*
X13026706Y-16542222D01*
X13026706Y-16542222D02*
X13036229Y-16532698D01*
X13036229Y-16532698D02*
X13055277Y-16523174D01*
X13055277Y-16523174D02*
X13102896Y-16523174D01*
X13102896Y-16523174D02*
X13121944Y-16532698D01*
X13121944Y-16532698D02*
X13131467Y-16542222D01*
X13131467Y-16542222D02*
X13140991Y-16561269D01*
X13140991Y-16561269D02*
X13140991Y-16608888D01*
X13140991Y-16608888D02*
X13131467Y-16627936D01*
X13131467Y-16627936D02*
X13121944Y-16637460D01*
X13121944Y-16637460D02*
X13102896Y-16646984D01*
X13102896Y-16646984D02*
X13055277Y-16646984D01*
X13055277Y-16646984D02*
X13036229Y-16637460D01*
X13036229Y-16637460D02*
X13026706Y-16627936D01*
X13331467Y-16646984D02*
X13217182Y-16646984D01*
X13274325Y-16646984D02*
X13274325Y-16446984D01*
X13274325Y-16446984D02*
X13255277Y-16475555D01*
X13255277Y-16475555D02*
X13236229Y-16494603D01*
X13236229Y-16494603D02*
X13217182Y-16504127D01*
X13407658Y-16466031D02*
X13417182Y-16456508D01*
X13417182Y-16456508D02*
X13436229Y-16446984D01*
X13436229Y-16446984D02*
X13483848Y-16446984D01*
X13483848Y-16446984D02*
X13502896Y-16456508D01*
X13502896Y-16456508D02*
X13512420Y-16466031D01*
X13512420Y-16466031D02*
X13521944Y-16485079D01*
X13521944Y-16485079D02*
X13521944Y-16504127D01*
X13521944Y-16504127D02*
X13512420Y-16532698D01*
X13512420Y-16532698D02*
X13398134Y-16646984D01*
X13398134Y-16646984D02*
X13521944Y-16646984D01*
X13598134Y-16446984D02*
X13598134Y-16485079D01*
X13674325Y-16446984D02*
X13674325Y-16485079D01*
X13969563Y-16723174D02*
X13960039Y-16713650D01*
X13960039Y-16713650D02*
X13940991Y-16685079D01*
X13940991Y-16685079D02*
X13931468Y-16666031D01*
X13931468Y-16666031D02*
X13921944Y-16637460D01*
X13921944Y-16637460D02*
X13912420Y-16589841D01*
X13912420Y-16589841D02*
X13912420Y-16551746D01*
X13912420Y-16551746D02*
X13921944Y-16504127D01*
X13921944Y-16504127D02*
X13931468Y-16475555D01*
X13931468Y-16475555D02*
X13940991Y-16456508D01*
X13940991Y-16456508D02*
X13960039Y-16427936D01*
X13960039Y-16427936D02*
X13969563Y-16418412D01*
X14131468Y-16446984D02*
X14093372Y-16446984D01*
X14093372Y-16446984D02*
X14074325Y-16456508D01*
X14074325Y-16456508D02*
X14064801Y-16466031D01*
X14064801Y-16466031D02*
X14045753Y-16494603D01*
X14045753Y-16494603D02*
X14036229Y-16532698D01*
X14036229Y-16532698D02*
X14036229Y-16608888D01*
X14036229Y-16608888D02*
X14045753Y-16627936D01*
X14045753Y-16627936D02*
X14055277Y-16637460D01*
X14055277Y-16637460D02*
X14074325Y-16646984D01*
X14074325Y-16646984D02*
X14112420Y-16646984D01*
X14112420Y-16646984D02*
X14131468Y-16637460D01*
X14131468Y-16637460D02*
X14140991Y-16627936D01*
X14140991Y-16627936D02*
X14150515Y-16608888D01*
X14150515Y-16608888D02*
X14150515Y-16561269D01*
X14150515Y-16561269D02*
X14140991Y-16542222D01*
X14140991Y-16542222D02*
X14131468Y-16532698D01*
X14131468Y-16532698D02*
X14112420Y-16523174D01*
X14112420Y-16523174D02*
X14074325Y-16523174D01*
X14074325Y-16523174D02*
X14055277Y-16532698D01*
X14055277Y-16532698D02*
X14045753Y-16542222D01*
X14045753Y-16542222D02*
X14036229Y-16561269D01*
X14388610Y-16646984D02*
X14388610Y-16446984D01*
X14474325Y-16646984D02*
X14474325Y-16542222D01*
X14474325Y-16542222D02*
X14464801Y-16523174D01*
X14464801Y-16523174D02*
X14445753Y-16513650D01*
X14445753Y-16513650D02*
X14417182Y-16513650D01*
X14417182Y-16513650D02*
X14398134Y-16523174D01*
X14398134Y-16523174D02*
X14388610Y-16532698D01*
X14598134Y-16646984D02*
X14579087Y-16637460D01*
X14579087Y-16637460D02*
X14569563Y-16627936D01*
X14569563Y-16627936D02*
X14560039Y-16608888D01*
X14560039Y-16608888D02*
X14560039Y-16551746D01*
X14560039Y-16551746D02*
X14569563Y-16532698D01*
X14569563Y-16532698D02*
X14579087Y-16523174D01*
X14579087Y-16523174D02*
X14598134Y-16513650D01*
X14598134Y-16513650D02*
X14626706Y-16513650D01*
X14626706Y-16513650D02*
X14645753Y-16523174D01*
X14645753Y-16523174D02*
X14655277Y-16532698D01*
X14655277Y-16532698D02*
X14664801Y-16551746D01*
X14664801Y-16551746D02*
X14664801Y-16608888D01*
X14664801Y-16608888D02*
X14655277Y-16627936D01*
X14655277Y-16627936D02*
X14645753Y-16637460D01*
X14645753Y-16637460D02*
X14626706Y-16646984D01*
X14626706Y-16646984D02*
X14598134Y-16646984D01*
X14779087Y-16646984D02*
X14760039Y-16637460D01*
X14760039Y-16637460D02*
X14750515Y-16618412D01*
X14750515Y-16618412D02*
X14750515Y-16446984D01*
X14931468Y-16637460D02*
X14912420Y-16646984D01*
X14912420Y-16646984D02*
X14874325Y-16646984D01*
X14874325Y-16646984D02*
X14855277Y-16637460D01*
X14855277Y-16637460D02*
X14845753Y-16618412D01*
X14845753Y-16618412D02*
X14845753Y-16542222D01*
X14845753Y-16542222D02*
X14855277Y-16523174D01*
X14855277Y-16523174D02*
X14874325Y-16513650D01*
X14874325Y-16513650D02*
X14912420Y-16513650D01*
X14912420Y-16513650D02*
X14931468Y-16523174D01*
X14931468Y-16523174D02*
X14940991Y-16542222D01*
X14940991Y-16542222D02*
X14940991Y-16561269D01*
X14940991Y-16561269D02*
X14845753Y-16580317D01*
X15017182Y-16637460D02*
X15036230Y-16646984D01*
X15036230Y-16646984D02*
X15074325Y-16646984D01*
X15074325Y-16646984D02*
X15093372Y-16637460D01*
X15093372Y-16637460D02*
X15102896Y-16618412D01*
X15102896Y-16618412D02*
X15102896Y-16608888D01*
X15102896Y-16608888D02*
X15093372Y-16589841D01*
X15093372Y-16589841D02*
X15074325Y-16580317D01*
X15074325Y-16580317D02*
X15045753Y-16580317D01*
X15045753Y-16580317D02*
X15026706Y-16570793D01*
X15026706Y-16570793D02*
X15017182Y-16551746D01*
X15017182Y-16551746D02*
X15017182Y-16542222D01*
X15017182Y-16542222D02*
X15026706Y-16523174D01*
X15026706Y-16523174D02*
X15045753Y-16513650D01*
X15045753Y-16513650D02*
X15074325Y-16513650D01*
X15074325Y-16513650D02*
X15093372Y-16523174D01*
X15169563Y-16723174D02*
X15179087Y-16713650D01*
X15179087Y-16713650D02*
X15198134Y-16685079D01*
X15198134Y-16685079D02*
X15207658Y-16666031D01*
X15207658Y-16666031D02*
X15217182Y-16637460D01*
X15217182Y-16637460D02*
X15226706Y-16589841D01*
X15226706Y-16589841D02*
X15226706Y-16551746D01*
X15226706Y-16551746D02*
X15217182Y-16504127D01*
X15217182Y-16504127D02*
X15207658Y-16475555D01*
X15207658Y-16475555D02*
X15198134Y-16456508D01*
X15198134Y-16456508D02*
X15179087Y-16427936D01*
X15179087Y-16427936D02*
X15169563Y-16418412D01*
M02*
