M48
; DRILL file {KiCad 8.0.3} date 2025-03-09T15:35:58+0530
; FORMAT={-:-/ absolute / inch / decimal}
; #@! TF.CreationDate,2025-03-09T15:35:58+05:30
; #@! TF.GenerationSoftware,Kicad,Pcbnew,8.0.3
; #@! TF.FileFunction,Plated,1,2,PTH
FMAT,2
INCH
; #@! TA.AperFunction,Plated,PTH,ViaDrill
T1C0.0118
; #@! TA.AperFunction,Plated,PTH,ComponentDrill
T2C0.0315
; #@! TA.AperFunction,Plated,PTH,ComponentDrill
T3C0.0374
; #@! TA.AperFunction,Plated,PTH,ComponentDrill
T4C0.0394
; #@! TA.AperFunction,Plated,PTH,ComponentDrill
T5C0.0512
%
G90
G05
T1
X4.1339Y-3.3465
X4.1732Y-2.7559
X4.1732Y-3.8189
X4.2113Y-3.6619
X4.2142Y-2.7866
X4.252Y-2.7953
X4.3307Y-3.4252
X4.3646Y-3.0319
X4.4094Y-2.7953
X4.4157Y-2.6913
X4.4488Y-2.7165
X4.4488Y-2.9528
X4.4488Y-3.9764
X4.4488Y-5.5906
X4.4882Y-5.748
X4.6063Y-3.9764
T2
X4.2598Y-3.3457
X4.2598Y-3.4457
X4.2598Y-3.5457
X4.2598Y-3.6457
X4.2598Y-3.7457
X4.2598Y-3.8457
X4.2598Y-3.9457
X4.2598Y-4.0457
X4.2598Y-4.1457
X4.2598Y-4.2457
X4.2598Y-4.3457
X4.2598Y-4.4457
X4.2598Y-4.5457
X4.2598Y-4.6457
X4.2953Y-4.8031
X4.4449Y-4.8031
X4.5598Y-3.3457
X4.5598Y-3.4457
X4.5598Y-3.5457
X4.5598Y-3.6457
X4.5598Y-3.7457
X4.5598Y-3.8457
X4.5598Y-3.9457
X4.5598Y-4.0457
X4.5598Y-4.1457
X4.5598Y-4.2457
X4.5598Y-4.3457
X4.5598Y-4.4457
X4.5598Y-4.5457
X4.5598Y-4.6457
T3
X4.5157Y-5.4035
X4.5157Y-5.502
X4.5157Y-5.6004
X4.5157Y-5.6988
X4.5276Y-2.8543
X4.5276Y-2.9528
X4.5276Y-3.0512
X4.5276Y-3.1496
T4
X4.3102Y-2.9425
X4.3102Y-3.0409
X4.3102Y-3.1394
T5
X4.2913Y-5.0591
X4.2913Y-5.315
X4.2913Y-5.4528
X4.2913Y-5.7087
X4.5276Y-4.9508
X4.5276Y-5.2067
M30
