%TF.GenerationSoftware,KiCad,Pcbnew,8.0.3*%
%TF.CreationDate,2025-03-09T15:36:07+05:30*%
%TF.ProjectId,penmouse without charger,70656e6d-6f75-4736-9520-776974686f75,rev?*%
%TF.SameCoordinates,Original*%
%TF.FileFunction,Drillmap*%
%TF.FilePolarity,Positive*%
%FSLAX45Y45*%
G04 Gerber Fmt 4.5, Leading zero omitted, Abs format (unit mm)*
G04 Created by KiCad (PCBNEW 8.0.3) date 2025-03-09 15:36:07*
%MOMM*%
%LPD*%
G01*
G04 APERTURE LIST*
%ADD10C,0.050000*%
%ADD11C,0.200000*%
G04 APERTURE END LIST*
D10*
X10397000Y-6492000D02*
X11910000Y-6492000D01*
X11910000Y-14857000D01*
X10397000Y-14857000D01*
X10397000Y-6492000D01*
D11*
X10655277Y-15170984D02*
X10655277Y-14970984D01*
X10655277Y-14970984D02*
X10702896Y-14970984D01*
X10702896Y-14970984D02*
X10731467Y-14980508D01*
X10731467Y-14980508D02*
X10750515Y-14999555D01*
X10750515Y-14999555D02*
X10760039Y-15018603D01*
X10760039Y-15018603D02*
X10769563Y-15056698D01*
X10769563Y-15056698D02*
X10769563Y-15085269D01*
X10769563Y-15085269D02*
X10760039Y-15123365D01*
X10760039Y-15123365D02*
X10750515Y-15142412D01*
X10750515Y-15142412D02*
X10731467Y-15161460D01*
X10731467Y-15161460D02*
X10702896Y-15170984D01*
X10702896Y-15170984D02*
X10655277Y-15170984D01*
X10855277Y-15170984D02*
X10855277Y-15037650D01*
X10855277Y-15075746D02*
X10864801Y-15056698D01*
X10864801Y-15056698D02*
X10874324Y-15047174D01*
X10874324Y-15047174D02*
X10893372Y-15037650D01*
X10893372Y-15037650D02*
X10912420Y-15037650D01*
X10979086Y-15170984D02*
X10979086Y-15037650D01*
X10979086Y-14970984D02*
X10969563Y-14980508D01*
X10969563Y-14980508D02*
X10979086Y-14990031D01*
X10979086Y-14990031D02*
X10988610Y-14980508D01*
X10988610Y-14980508D02*
X10979086Y-14970984D01*
X10979086Y-14970984D02*
X10979086Y-14990031D01*
X11102896Y-15170984D02*
X11083848Y-15161460D01*
X11083848Y-15161460D02*
X11074324Y-15142412D01*
X11074324Y-15142412D02*
X11074324Y-14970984D01*
X11207658Y-15170984D02*
X11188610Y-15161460D01*
X11188610Y-15161460D02*
X11179086Y-15142412D01*
X11179086Y-15142412D02*
X11179086Y-14970984D01*
X11436229Y-15170984D02*
X11436229Y-14970984D01*
X11436229Y-14970984D02*
X11502896Y-15113841D01*
X11502896Y-15113841D02*
X11569562Y-14970984D01*
X11569562Y-14970984D02*
X11569562Y-15170984D01*
X11750515Y-15170984D02*
X11750515Y-15066222D01*
X11750515Y-15066222D02*
X11740991Y-15047174D01*
X11740991Y-15047174D02*
X11721943Y-15037650D01*
X11721943Y-15037650D02*
X11683848Y-15037650D01*
X11683848Y-15037650D02*
X11664801Y-15047174D01*
X11750515Y-15161460D02*
X11731467Y-15170984D01*
X11731467Y-15170984D02*
X11683848Y-15170984D01*
X11683848Y-15170984D02*
X11664801Y-15161460D01*
X11664801Y-15161460D02*
X11655277Y-15142412D01*
X11655277Y-15142412D02*
X11655277Y-15123365D01*
X11655277Y-15123365D02*
X11664801Y-15104317D01*
X11664801Y-15104317D02*
X11683848Y-15094793D01*
X11683848Y-15094793D02*
X11731467Y-15094793D01*
X11731467Y-15094793D02*
X11750515Y-15085269D01*
X11845753Y-15037650D02*
X11845753Y-15237650D01*
X11845753Y-15047174D02*
X11864801Y-15037650D01*
X11864801Y-15037650D02*
X11902896Y-15037650D01*
X11902896Y-15037650D02*
X11921943Y-15047174D01*
X11921943Y-15047174D02*
X11931467Y-15056698D01*
X11931467Y-15056698D02*
X11940991Y-15075746D01*
X11940991Y-15075746D02*
X11940991Y-15132888D01*
X11940991Y-15132888D02*
X11931467Y-15151936D01*
X11931467Y-15151936D02*
X11921943Y-15161460D01*
X11921943Y-15161460D02*
X11902896Y-15170984D01*
X11902896Y-15170984D02*
X11864801Y-15170984D01*
X11864801Y-15170984D02*
X11845753Y-15161460D01*
X12026705Y-15151936D02*
X12036229Y-15161460D01*
X12036229Y-15161460D02*
X12026705Y-15170984D01*
X12026705Y-15170984D02*
X12017182Y-15161460D01*
X12017182Y-15161460D02*
X12026705Y-15151936D01*
X12026705Y-15151936D02*
X12026705Y-15170984D01*
X12026705Y-15047174D02*
X12036229Y-15056698D01*
X12036229Y-15056698D02*
X12026705Y-15066222D01*
X12026705Y-15066222D02*
X12017182Y-15056698D01*
X12017182Y-15056698D02*
X12026705Y-15047174D01*
X12026705Y-15047174D02*
X12026705Y-15066222D01*
M02*
